<?xml version="1.0" standalone="no"?>
<!DOCTYPE svg PUBLIC "-//W3C//DTD SVG 20010904//EN"
 "http://www.w3.org/TR/2001/REC-SVG-20010904/DTD/svg10.dtd">
<svg version="1.0" xmlns="http://www.w3.org/2000/svg"
 width="401.000000pt" height="401.000000pt" viewBox="0 0 401.000000 401.000000"
 preserveAspectRatio="xMidYMid meet">
<metadata>
Created by potrace 1.14, written by Peter Selinger 2001-2017
</metadata>
<g transform="translate(0.000000,401.000000) scale(0.100000,-0.100000)"
fill="#000000" stroke="none">
<path d="M1480 3850 c-48 -16 -570 -184 -658 -211 -25 -8 -41 -26 -73 -82 -23
-40 -50 -86 -60 -102 l-18 -30 117 -61 c327 -171 390 -204 394 -204 2 0 3 71
3 158 l-1 157 47 74 47 74 208 64 209 65 335 2 c322 2 338 1 420 -21 74 -20
372 -120 375 -126 1 -1 30 -51 65 -110 36 -62 59 -112 54 -117 -9 -8 -76 -43
-344 -182 l-145 -75 -425 2 c-425 1 -425 1 -470 24 -96 50 -175 94 -185 102
-25 23 -31 6 -30 -86 0 -51 3 -96 5 -98 3 -2 23 -16 45 -29 l40 -25 585 0 585
-1 60 32 c33 18 112 62 175 98 63 36 135 76 160 90 380 211 355 190 305 264
-13 19 -40 63 -60 98 l-38 63 -81 26 c-44 14 -182 58 -306 97 -124 40 -234 75
-245 78 -11 4 -249 7 -530 9 -475 2 -514 0 -565 -17z"/>
<path d="M1778 3648 c-13 -3 -88 -27 -168 -52 l-145 -46 -33 -61 c-26 -49 -30
-64 -20 -71 7 -4 45 -26 83 -49 39 -22 105 -62 148 -89 l79 -50 310 0 311 0
116 62 c64 34 146 81 183 105 l67 42 -31 54 -32 53 -165 54 -165 55 -257 0
c-142 0 -268 -3 -281 -7z"/>
<path d="M667 3593 c-20 -16 -65 -48 -101 -73 -37 -25 -116 -81 -177 -125
l-111 -79 -117 -176 c-65 -96 -126 -189 -136 -206 l-18 -31 174 -209 c96 -115
181 -217 189 -228 8 -10 22 -26 30 -36 8 -9 35 -41 60 -71 25 -30 53 -63 62
-74 9 -11 65 -78 124 -150 92 -111 150 -181 233 -280 33 -40 244 -291 265
-315 11 -14 97 -117 191 -230 93 -113 172 -207 175 -210 3 -3 23 -27 45 -55
22 -27 46 -57 55 -66 8 -9 100 -120 205 -246 l189 -230 20 26 c21 26 28 36 56
68 8 9 109 130 223 268 115 137 216 259 225 270 10 11 75 90 146 175 70 85
138 166 149 180 12 14 104 124 205 245 101 121 194 231 206 245 11 14 86 104
166 200 80 96 155 186 166 200 94 110 434 523 434 528 0 3 -61 97 -136 208
l-135 203 -214 150 c-117 83 -216 151 -219 151 -3 0 23 -48 59 -106 36 -59 65
-110 65 -114 0 -3 -44 -30 -97 -58 -54 -29 -134 -71 -178 -95 -44 -24 -134
-71 -200 -106 -66 -35 -124 -67 -130 -71 -5 -4 -50 -29 -100 -55 l-90 -49
-615 -1 -615 -2 -60 32 c-33 18 -105 56 -160 85 -55 29 -122 65 -150 80 -27
15 -86 47 -130 70 -44 23 -102 55 -130 70 -27 15 -78 42 -113 60 -73 38 -73
40 -11 132 22 31 39 61 39 66 0 5 9 21 21 36 27 34 11 33 -34 -1z"/>
<path d="M1567 254 c-1 -1 -83 -5 -182 -8 -99 -4 -205 -9 -235 -11 -79 -7
-152 -15 -175 -20 -11 -2 -26 -4 -32 -4 -7 -1 -13 -5 -13 -10 0 -21 80 -32
370 -48 178 -10 1286 -10 1465 0 211 12 239 15 344 31 27 5 23 24 -6 30 -50 9
-223 24 -398 32 -121 6 -1132 13 -1138 8z"/>
</g>
</svg>
