<?xml version="1.0" encoding="UTF-8"?>
<svg width="700pt" height="700pt" version="1.1" viewBox="0 0 700 700" xmlns="http://www.w3.org/2000/svg">
 <g>
  <path d="m367.5 175c-9.6641 0-17.5 7.8359-17.5 17.5s7.8359 17.5 17.5 17.5h70c9.6641 0 17.5-7.8359 17.5-17.5s-7.8359-17.5-17.5-17.5z"/>
  <path d="m245 245c0-9.6641 7.8359-17.5 17.5-17.5h175c9.6641 0 17.5 7.8359 17.5 17.5s-7.8359 17.5-17.5 17.5h-175c-9.6641 0-17.5-7.8359-17.5-17.5z"/>
  <path d="m262.5 280c-9.6641 0-17.5 7.8359-17.5 17.5s7.8359 17.5 17.5 17.5h175c9.6641 0 17.5-7.8359 17.5-17.5s-7.8359-17.5-17.5-17.5z"/>
  <path d="m105 87.5c0-28.996 23.504-52.5 52.5-52.5h385c28.996 0 52.5 23.504 52.5 52.5v245c0 28.996-23.504 52.5-52.5 52.5h-105v52.5h8.75c24.164 0 43.75 19.586 43.75 43.75s-19.586 43.75-43.75 43.75h-192.5c-24.164 0-43.75-19.586-43.75-43.75s19.586-43.75 43.75-43.75h8.75v-52.5h-105c-28.996 0-52.5-23.504-52.5-52.5zm192.5 297.5v52.5h105v-52.5zm148.75 87.5h-192.5c-4.832 0-8.75 3.918-8.75 8.75s3.918 8.75 8.75 8.75h192.5c4.832 0 8.75-3.918 8.75-8.75s-3.918-8.75-8.75-8.75zm96.25-122.5h-17.5v-210c0-28.996-23.504-52.5-52.5-52.5h-192.5c-4.6406 0-9.0938 1.8438-12.375 5.125l-87.5 87.5c-3.2812 3.2812-5.125 7.7344-5.125 12.375v157.5h-17.5c-9.6641 0-17.5-7.8359-17.5-17.5v-245c0-9.6641 7.8359-17.5 17.5-17.5h385c9.6641 0 17.5 7.8359 17.5 17.5v245c0 9.6641-7.8359 17.5-17.5 17.5zm-52.5 0v-210c0-9.6641-7.8359-17.5-17.5-17.5h-175v35c0 28.996-23.504 52.5-52.5 52.5h-35v140zm-255.25-175h10.25c9.6641 0 17.5-7.8359 17.5-17.5v-10.25z" fill-rule="evenodd"/>
 </g>
</svg>
