<?xml version="1.0" encoding="UTF-8"?>
<svg width="700pt" height="700pt" version="1.1" viewBox="0 0 700 700" xmlns="http://www.w3.org/2000/svg" xmlns:xlink="http://www.w3.org/1999/xlink">
 <defs>
  <symbol id="m" overflow="visible">
   <path d="m35.391-2.1094c-1.8242 0.9375-3.7266 1.6484-5.7031 2.125-1.9805 0.48828-4.043 0.73438-6.1875 0.73438-6.418 0-11.5-1.7891-15.25-5.375-3.75-3.5938-5.625-8.457-5.625-14.594 0-6.1562 1.875-11.023 5.625-14.609 3.75-3.582 8.832-5.375 15.25-5.375 2.1445 0 4.207 0.24219 6.1875 0.71875 1.9766 0.48047 3.8789 1.1953 5.7031 2.1406v7.9688c-1.8438-1.25-3.6641-2.1641-5.4531-2.75-1.7812-0.59375-3.6641-0.89062-5.6406-0.89062-3.543 0-6.3281 1.1367-8.3594 3.4062-2.0312 2.2734-3.0469 5.4023-3.0469 9.3906 0 3.9688 1.0156 7.0898 3.0469 9.3594 2.0312 2.2734 4.8164 3.4062 8.3594 3.4062 1.9766 0 3.8594-0.28906 5.6406-0.875 1.7891-0.58203 3.6094-1.5 5.4531-2.75z"/>
  </symbol>
  <symbol id="c" overflow="visible">
   <path d="m25.891-21.016c-0.80469-0.38281-1.6055-0.66406-2.4062-0.84375-0.80469-0.17578-1.6055-0.26562-2.4062-0.26562-2.375 0-4.2031 0.76172-5.4844 2.2812-1.2812 1.5234-1.9219 3.6992-1.9219 6.5312v13.312h-9.2344v-28.891h9.2344v4.75c1.1875-1.8945 2.5469-3.2734 4.0781-4.1406 1.5391-0.875 3.3906-1.3125 5.5469-1.3125 0.30078 0 0.63281 0.015625 1 0.046875 0.36328 0.023437 0.89062 0.078125 1.5781 0.17188z"/>
  </symbol>
  <symbol id="a" overflow="visible">
   <path d="m33.281-14.516v2.625h-21.594c0.21875 2.168 1 3.793 2.3438 4.875 1.3438 1.0859 3.2188 1.625 5.625 1.625 1.9453 0 3.9375-0.28516 5.9688-0.85938 2.0391-0.58203 4.1328-1.457 6.2812-2.625v7.125c-2.1875 0.82422-4.375 1.4453-6.5625 1.8594-2.1797 0.42578-4.3594 0.64062-6.5469 0.64062-5.2188 0-9.2812-1.3281-12.188-3.9844-2.8984-2.6562-4.3438-6.3828-4.3438-11.188 0-4.707 1.4219-8.4102 4.2656-11.109 2.8516-2.707 6.7695-4.0625 11.75-4.0625 4.5391 0 8.1758 1.3711 10.906 4.1094 2.7266 2.7305 4.0938 6.3867 4.0938 10.969zm-9.5-3.0781c0-1.75-0.51172-3.1602-1.5312-4.2344-1.0234-1.082-2.3594-1.625-4.0156-1.625-1.793 0-3.2461 0.50781-4.3594 1.5156-1.1172 1.0117-1.8125 2.4609-2.0938 4.3438z"/>
  </symbol>
  <symbol id="h" overflow="visible">
   <path d="m17.391-13c-1.9297 0-3.3828 0.32812-4.3594 0.98438-0.96875 0.64844-1.4531 1.6094-1.4531 2.8906 0 1.168 0.39062 2.0859 1.1719 2.75 0.78125 0.65625 1.8672 0.98438 3.2656 0.98438 1.7383 0 3.2031-0.61719 4.3906-1.8594 1.1875-1.25 1.7812-2.8125 1.7812-4.6875v-1.0625zm14.109-3.4844v16.484h-9.3125v-4.2812c-1.2422 1.75-2.6367 3.0273-4.1875 3.8281-1.543 0.80078-3.4219 1.2031-5.6406 1.2031-2.9922 0-5.4219-0.86719-7.2969-2.6094-1.8672-1.75-2.7969-4.0195-2.7969-6.8125 0-3.3828 1.1641-5.8672 3.5-7.4531 2.332-1.582 5.9883-2.375 10.969-2.375h5.4531v-0.71875c0-1.457-0.57812-2.5234-1.7344-3.2031-1.1484-0.6875-2.9453-1.0312-5.3906-1.0312-1.9805 0-3.8242 0.19922-5.5312 0.59375-1.6992 0.39844-3.2773 0.99219-4.7344 1.7812v-7.0312c1.9766-0.48828 3.9609-0.85938 5.9531-1.1094 2-0.25 3.9922-0.375 5.9844-0.375 5.2188 0 8.9844 1.0312 11.297 3.0938 2.3125 2.0547 3.4688 5.3906 3.4688 10.016z"/>
  </symbol>
  <symbol id="b" overflow="visible">
   <path d="m14.516-37.094v8.2031h9.5312v6.6094h-9.5312v12.25c0 1.3438 0.26562 2.25 0.79688 2.7188 0.53906 0.46875 1.6016 0.70312 3.1875 0.70312h4.7344v6.6094h-7.9062c-3.6484 0-6.2344-0.75781-7.7656-2.2812-1.5234-1.5195-2.2812-4.1016-2.2812-7.75v-12.25h-4.5781v-6.6094h4.5781v-8.2031z"/>
  </symbol>
  <symbol id="g" overflow="visible">
   <path d="m24.094-24.656v-15.484h9.2812v40.141h-9.2812v-4.1719c-1.2734 1.6992-2.6719 2.9453-4.2031 3.7344s-3.3047 1.1875-5.3125 1.1875c-3.5625 0-6.4922-1.4102-8.7812-4.2344-2.2812-2.832-3.4219-6.4766-3.4219-10.938 0-4.4453 1.1406-8.0859 3.4219-10.922 2.2891-2.832 5.2188-4.25 8.7812-4.25 1.9883 0 3.7539 0.40234 5.2969 1.2031 1.5391 0.80469 2.9453 2.0469 4.2188 3.7344zm-6.0938 18.703c1.9766 0 3.4883-0.72266 4.5312-2.1719 1.0391-1.4453 1.5625-3.5469 1.5625-6.2969s-0.52344-4.8438-1.5625-6.2812c-1.043-1.4453-2.5547-2.1719-4.5312-2.1719-1.9609 0-3.4609 0.72656-4.5 2.1719-1.043 1.4375-1.5625 3.5312-1.5625 6.2812s0.51953 4.8516 1.5625 6.2969c1.0391 1.4492 2.5391 2.1719 4.5 2.1719z"/>
  </symbol>
  <symbol id="f" overflow="visible">
   <path d="m19.812-5.9531c1.9766 0 3.4844-0.72266 4.5156-2.1719 1.0391-1.4453 1.5625-3.5469 1.5625-6.2969s-0.52344-4.8438-1.5625-6.2812c-1.0312-1.4453-2.5391-2.1719-4.5156-2.1719-1.9805 0-3.5 0.73047-4.5625 2.1875-1.0547 1.4492-1.5781 3.5391-1.5781 6.2656 0 2.7422 0.52344 4.8398 1.5781 6.2969 1.0625 1.4492 2.582 2.1719 4.5625 2.1719zm-6.1406-18.703c1.2695-1.6875 2.6758-2.9297 4.2188-3.7344 1.5508-0.80078 3.332-1.2031 5.3438-1.2031 3.5625 0 6.4844 1.418 8.7656 4.25 2.2891 2.8359 3.4375 6.4766 3.4375 10.922 0 4.4609-1.1484 8.1055-3.4375 10.938-2.2812 2.8242-5.2031 4.2344-8.7656 4.2344-2.0117 0-3.793-0.40234-5.3438-1.2031-1.543-0.80078-2.9492-2.0391-4.2188-3.7188v4.1719h-9.2344v-40.141h9.2344z"/>
  </symbol>
  <symbol id="e" overflow="visible">
   <path d="m0.64062-28.891h9.2344l7.7656 19.609 6.6094-19.609h9.2344l-12.156 31.625c-1.2188 3.2188-2.6406 5.4688-4.2656 6.75s-3.7734 1.9219-6.4375 1.9219h-5.3438v-6.0625h2.8906c1.5703 0 2.7109-0.25 3.4219-0.75 0.71875-0.5 1.2734-1.3984 1.6719-2.6875l0.25-0.79688z"/>
  </symbol>
  <symbol id="d" overflow="visible">
   <path d="m0.26562-38.516h9.9688l10.219 28.438 10.188-28.438h9.9844l-14.266 38.516h-11.844z"/>
  </symbol>
  <symbol id="l" overflow="visible">
   <path d="m27.781-27.984v7.5312c-1.2617-0.86328-2.5234-1.5-3.7812-1.9062-1.2617-0.41406-2.5742-0.625-3.9375-0.625-2.5742 0-4.5781 0.75781-6.0156 2.2656-1.4375 1.5-2.1562 3.6016-2.1562 6.2969 0 2.6992 0.71875 4.8047 2.1562 6.3125 1.4375 1.5 3.4414 2.25 6.0156 2.25 1.4453 0 2.8164-0.21094 4.1094-0.64062 1.3008-0.42578 2.5039-1.0625 3.6094-1.9062v7.5625c-1.4492 0.53125-2.918 0.92578-4.4062 1.1875-1.4805 0.26953-2.9688 0.40625-4.4688 0.40625-5.2109 0-9.2891-1.3359-12.234-4.0156-2.9375-2.6758-4.4062-6.3945-4.4062-11.156 0-4.7578 1.4688-8.4766 4.4062-11.156 2.9453-2.6758 7.0234-4.0156 12.234-4.0156 1.5078 0 3 0.13672 4.4688 0.40625 1.4766 0.27344 2.9453 0.67188 4.4062 1.2031z"/>
  </symbol>
  <symbol id="k" overflow="visible">
   <path d="m18.188-22.984c-2.0547 0-3.6172 0.73438-4.6875 2.2031-1.0742 1.4688-1.6094 3.5898-1.6094 6.3594 0 2.7734 0.53516 4.8906 1.6094 6.3594 1.0703 1.4688 2.6328 2.2031 4.6875 2.2031 2.0078 0 3.5469-0.73438 4.6094-2.2031 1.0703-1.4688 1.6094-3.5859 1.6094-6.3594 0-2.7695-0.53906-4.8906-1.6094-6.3594-1.0625-1.4688-2.6016-2.2031-4.6094-2.2031zm0-6.6094c4.9688 0 8.8477 1.3438 11.641 4.0312 2.8008 2.6875 4.2031 6.4023 4.2031 11.141 0 4.75-1.4023 8.4688-4.2031 11.156-2.793 2.6797-6.6719 4.0156-11.641 4.0156-4.9922 0-8.8906-1.3359-11.703-4.0156-2.8125-2.6875-4.2188-6.4062-4.2188-11.156 0-4.7383 1.4062-8.4531 4.2188-11.141s6.7109-4.0312 11.703-4.0312z"/>
  </symbol>
  <symbol id="j" overflow="visible">
   <path d="m27-27.984v7.0156c-1.9688-0.82031-3.875-1.4414-5.7188-1.8594-1.8438-0.41406-3.5859-0.625-5.2188-0.625-1.75 0-3.0547 0.22656-3.9062 0.67188-0.84375 0.4375-1.2656 1.1094-1.2656 2.0156 0 0.74219 0.31641 1.3086 0.95312 1.7031 0.64453 0.39844 1.8047 0.6875 3.4844 0.875l1.625 0.23438c4.7266 0.60547 7.9062 1.5938 9.5312 2.9688 1.6328 1.375 2.4531 3.5312 2.4531 6.4688 0 3.0859-1.1367 5.4023-3.4062 6.9531-2.2734 1.543-5.6562 2.3125-10.156 2.3125-1.9062 0-3.8828-0.15234-5.9219-0.45312-2.043-0.30078-4.1367-0.75391-6.2812-1.3594v-7.0156c1.8438 0.89844 3.7266 1.5703 5.6562 2.0156 1.9375 0.44922 3.9062 0.67188 5.9062 0.67188 1.8008 0 3.1562-0.25 4.0625-0.75 0.91406-0.5 1.375-1.2383 1.375-2.2188 0-0.82031-0.32031-1.4375-0.95312-1.8438-0.625-0.40625-1.8711-0.71875-3.7344-0.9375l-1.625-0.20312c-4.1172-0.51953-7-1.4727-8.6562-2.8594-1.6484-1.3945-2.4688-3.5156-2.4688-6.3594 0-3.0625 1.0469-5.332 3.1406-6.8125 2.1016-1.4766 5.3203-2.2188 9.6562-2.2188 1.6953 0 3.4844 0.13281 5.3594 0.39062 1.875 0.26172 3.9102 0.66797 6.1094 1.2188z"/>
  </symbol>
  <symbol id="i" overflow="visible">
   <path d="m4.8438-38.516h16.484c4.9062 0 8.6641 1.0898 11.281 3.2656 2.625 2.1797 3.9375 5.2773 3.9375 9.2969 0 4.043-1.3125 7.1523-3.9375 9.3281-2.6172 2.1797-6.375 3.2656-11.281 3.2656h-6.5469v13.359h-9.9375zm9.9375 7.2031v10.75h5.5c1.9141 0 3.3984-0.46875 4.4531-1.4062 1.0508-0.9375 1.5781-2.2656 1.5781-3.9844s-0.52734-3.0391-1.5781-3.9688c-1.0547-0.92578-2.5391-1.3906-4.4531-1.3906z"/>
  </symbol>
 </defs>
 <g>
  <path d="m592.82 436.62-115.94-99.434c1.6992-9.2305-1.1602-18.84-8.1367-25.695l-21.004-21.004c24.531-50.312 25.715-107.18 4.1328-157.98-31.18-73.379-102.06-116.06-175.3-116.06-78.191 0-147.61 46.855-176.85 119.36-39.402 97.613 7.7539 208.6 105.48 248.01 50.75 20.441 106.41 17.957 154.65-5.5156l21.031 21.031c5.5391 5.5391 12.855 8.5859 20.625 8.5859 2.3438 0 4.6484-0.34375 6.8945-0.89844l99.137 115.54c22.609 26.414 63.633 28.336 88.832 3.1367 27.129-27.117 21.09-70.801-3.5547-89.086zm-379.71-72.402c-86.844-35.023-128.85-133.67-93.785-220.5 25.992-64.48 87.719-106.14 157.24-106.14 65.18 0 128.16 38.02 155.85 103.2 21.211 49.898 16.57 103.9-6.8711 146.76-41.098 76.387-133.21 108.61-212.43 76.68zm192.64 21.328c-3.0742 1.9609-7.2852 1.4961-9.9258-1.1445l-16.766-16.766c21.258-13.57 42.801-34.191 57.898-57.844 0.023438-0.039063 0.054688-0.070313 0.078125-0.10547l16.828 16.82c2.5195 2.4766 3.0859 6.082 1.3398 9.3906-0.80078 1.5898-48.203 48.832-49.453 49.648zm175.68 125.22c-16.496 16.496-43.254 15.109-57.844-1.9492l-97.406-113.52 39.695-39.691 113.5 97.328c17.578 14.977 18.199 41.691 2.0508 57.836z"/>
  <path d="m404.39 281.89c-5.9141-12.035-5.1914-48.059-42.223-55.941v-74.133c0-52.43-39.234-93.195-85.695-93.195-47.309 0-85.797 41.805-85.797 93.195v74.152c-16.531 3.5195-29.574 14.992-34.195 30.352-4 18.605-15.035 32.199-4.1797 46.891 4.582 6.1875 11.641 9.7344 19.355 9.7344l209.73 0.003907c15.992 0 27.633-15.41 23-31.059zm-197.87-130.07c0-42.652 31.379-77.348 69.949-77.348 40.059 0 69.844 36.359 69.844 77.348v71.66c-10.598-1.5312-21.027-2.7305-31.273-3.5273v-18.203c14.328-14.719 23.559-37.387 23.559-62.824 0-50.941-18.594-8.5039-44.586-40.066-1.3516-1.6562-3.3008-2.6992-5.4258-2.8945-2.1758-0.17578-4.2422 0.48437-5.8594 1.8633-15.504 13.23-38.965 19.012-58.961 18.238-4.332-0.21094-7.5547 2.6992-8.1914 6.6758-0.83594 5.2812-1.2383 10.578-1.2383 16.184 0 25.449 9.2383 48.125 23.578 62.848v18.18c-10.277 0.80078-20.746 2.0039-31.387 3.5469zm69.938 51.543c-28.988 0-46.277-34.812-46.277-64.438 0-2.3945 0.082031-4.7148 0.25781-7 19.891-0.60156 40.684-6.2773 56.793-17.574 10.742 9.25 22.215 13.242 34.836 13.543 0.45313 3.5547 0.67969 7.2422 0.67969 11.031 0 29.582-17.414 64.438-46.289 64.438zm22.73 10.207v8.6211c0 12.582-10.145 22.82-22.617 22.82-12.578 0-22.812-10.234-22.812-22.82v-8.6094c7.043 3.5898 14.684 5.6289 22.699 5.6289 8.0273 0 15.684-2.043 22.73-5.6406zm88.711 80.254c-1.5586 2.0859-3.9297 3.2812-6.5117 3.2812h-209.73c-2.6406 0-5.0547-1.207-6.6133-3.3125-4.1211-5.5898 0.41797-9.5273 6.5938-32.863 3.0547-10.137 12.02-17.703 23.352-19.73 15.75-2.7227 30.668-4.4609 45.469-5.5703 5.4844 14.691 19.543 25.23 36.117 25.23 16.496 0 30.48-10.539 35.934-25.23 14.793 1.1094 29.699 2.8477 45.395 5.5586 11.289 2.0234 20.512 9.7695 23.527 19.77l7.7891 25.5c0.75391 2.5547 0.26953 5.2344-1.3164 7.3672z"/>
  <use x="70" y="718.492188" xlink:href="#m"/>
  <use x="108.769531" y="718.492188" xlink:href="#c"/>
  <use x="134.824219" y="718.492188" xlink:href="#a"/>
  <use x="170.65625" y="718.492188" xlink:href="#h"/>
  <use x="206.304688" y="718.492188" xlink:href="#b"/>
  <use x="231.558594" y="718.492188" xlink:href="#a"/>
  <use x="267.390625" y="718.492188" xlink:href="#g"/>
  <use x="323.601562" y="718.492188" xlink:href="#f"/>
  <use x="361.417969" y="718.492188" xlink:href="#e"/>
  <use x="414.246094" y="718.492188" xlink:href="#d"/>
  <use x="455.132812" y="718.492188" xlink:href="#a"/>
  <use x="490.964844" y="718.492188" xlink:href="#l"/>
  <use x="522.28125" y="718.492188" xlink:href="#b"/>
  <use x="547.535156" y="718.492188" xlink:href="#k"/>
  <use x="583.832031" y="718.492188" xlink:href="#c"/>
  <use x="609.882813" y="718.492188" xlink:href="#j"/>
  <use x="659.722656" y="718.492188" xlink:href="#i"/>
 </g>
</svg>
