<?xml version="1.0" encoding="UTF-8"?>
<svg width="700pt" height="700pt" version="1.1" viewBox="0 0 700 700" xmlns="http://www.w3.org/2000/svg" xmlns:xlink="http://www.w3.org/1999/xlink">
 <defs>
  <symbol id="m" overflow="visible">
   <path d="m36.078-2.1562c-1.8672 0.96875-3.8086 1.6992-5.8281 2.1875-2.0117 0.48828-4.1094 0.73438-6.2969 0.73438-6.543 0-11.727-1.8281-15.547-5.4844-3.8125-3.6562-5.7188-8.6133-5.7188-14.875 0-6.2695 1.9062-11.234 5.7188-14.891 3.8203-3.6562 9.0039-5.4844 15.547-5.4844 2.1875 0 4.2852 0.25 6.2969 0.75 2.0195 0.49219 3.9609 1.2148 5.8281 2.1719v8.125c-1.875-1.2812-3.7266-2.2188-5.5469-2.8125-1.8242-0.59375-3.7461-0.89062-5.7656-0.89062-3.6172 0-6.4609 1.1562-8.5312 3.4688-2.0625 2.3125-3.0938 5.5-3.0938 9.5625 0 4.0547 1.0312 7.2344 3.0938 9.5469 2.0703 2.3125 4.9141 3.4688 8.5312 3.4688 2.0195 0 3.9414-0.29688 5.7656-0.89062 1.8203-0.59375 3.6719-1.5312 5.5469-2.8125z"/>
  </symbol>
  <symbol id="d" overflow="visible">
   <path d="m26.391-21.422c-0.82422-0.38281-1.6406-0.67188-2.4531-0.85938s-1.6328-0.28125-2.4531-0.28125c-2.4297 0-4.293 0.77734-5.5938 2.3281-1.3047 1.5547-1.9531 3.7773-1.9531 6.6719v13.562h-9.4219v-29.453h9.4219v4.8438c1.207-1.9258 2.5938-3.332 4.1562-4.2188 1.5703-0.88281 3.4531-1.3281 5.6406-1.3281 0.32031 0 0.66406 0.015625 1.0312 0.046875 0.36328 0.023437 0.89844 0.074219 1.6094 0.15625z"/>
  </symbol>
  <symbol id="c" overflow="visible">
   <path d="m33.922-14.797v2.6719h-22.016c0.22656 2.2109 1.0234 3.8672 2.3906 4.9688 1.375 1.1055 3.2852 1.6562 5.7344 1.6562 1.9766 0 4.0039-0.28906 6.0781-0.875 2.082-0.58203 4.2188-1.4727 6.4062-2.6719v7.2656c-2.2188 0.83594-4.4453 1.4648-6.6719 1.8906-2.2305 0.4375-4.4531 0.65625-6.6719 0.65625-5.3359 0-9.4805-1.3516-12.438-4.0625-2.9492-2.707-4.4219-6.5078-4.4219-11.406 0-4.8008 1.4453-8.5781 4.3438-11.328 2.9062-2.75 6.8984-4.125 11.984-4.125 4.625 0 8.3281 1.3984 11.109 4.1875 2.7812 2.7812 4.1719 6.5078 4.1719 11.172zm-9.6875-3.1406c0-1.7812-0.52344-3.2188-1.5625-4.3125-1.043-1.0938-2.4023-1.6406-4.0781-1.6406-1.8242 0-3.3086 0.51172-4.4531 1.5312-1.1367 1.0234-1.8438 2.4961-2.125 4.4219z"/>
  </symbol>
  <symbol id="b" overflow="visible">
   <path d="m17.719-13.25c-1.9609 0-3.4375 0.33594-4.4375 1-0.99219 0.66797-1.4844 1.6484-1.4844 2.9375 0 1.1992 0.39844 2.1367 1.2031 2.8125 0.80078 0.66797 1.9102 1 3.3281 1 1.7695 0 3.2578-0.63281 4.4688-1.9062 1.207-1.2695 1.8125-2.8594 1.8125-4.7656v-1.0781zm14.375-3.5469v16.797h-9.4844v-4.3594c-1.2617 1.7812-2.6836 3.0859-4.2656 3.9062-1.5742 0.8125-3.4922 1.2188-5.75 1.2188-3.0547 0-5.5312-0.89062-7.4375-2.6719-1.8984-1.7812-2.8438-4.0859-2.8438-6.9219 0-3.457 1.1875-5.9883 3.5625-7.5938 2.375-1.6133 6.1016-2.4219 11.188-2.4219h5.5469v-0.75c0-1.4883-0.58984-2.5781-1.7656-3.2656-1.168-0.6875-2.9961-1.0312-5.4844-1.0312-2.0234 0-3.9023 0.20312-5.6406 0.60938-1.7305 0.39844-3.3398 0.99609-4.8281 1.7969v-7.1719c2.0078-0.48828 4.0312-0.85938 6.0625-1.1094 2.0391-0.25781 4.0781-0.39062 6.1094-0.39062 5.3125 0 9.1445 1.0469 11.5 3.1406 2.3516 2.0938 3.5312 5.5 3.5312 10.219z"/>
  </symbol>
  <symbol id="i" overflow="visible">
   <path d="m14.797-37.812v8.3594h9.7031v6.7344h-9.7031v12.484c0 1.375 0.26953 2.3047 0.8125 2.7812 0.55078 0.48047 1.6289 0.71875 3.2344 0.71875h4.8438v6.7344h-8.0781c-3.7109 0-6.3398-0.77344-7.8906-2.3281-1.5547-1.5508-2.3281-4.1875-2.3281-7.9062v-12.484h-4.6875v-6.7344h4.6875v-8.3594z"/>
  </symbol>
  <symbol id="h" overflow="visible">
   <path d="m24.562-25.141v-15.766h9.4531v40.906h-9.4531v-4.2656c-1.3047 1.7422-2.7344 3.0156-4.2969 3.8281-1.5547 0.80078-3.3555 1.2031-5.4062 1.2031-3.6367 0-6.6211-1.4414-8.9531-4.3281-2.3242-2.8828-3.4844-6.5977-3.4844-11.141 0-4.5312 1.1602-8.2383 3.4844-11.125 2.332-2.8828 5.3164-4.3281 8.9531-4.3281 2.0312 0 3.8281 0.41406 5.3906 1.2344 1.5703 0.8125 3.0078 2.0742 4.3125 3.7812zm-6.2188 19.062c2.0195 0 3.5625-0.73438 4.625-2.2031s1.5938-3.6094 1.5938-6.4219c0-2.8008-0.53125-4.9375-1.5938-6.4062s-2.6055-2.2031-4.625-2.2031c-1.9922 0-3.5156 0.73438-4.5781 2.2031s-1.5938 3.6055-1.5938 6.4062c0 2.8125 0.53125 4.9531 1.5938 6.4219s2.5859 2.2031 4.5781 2.2031z"/>
  </symbol>
  <symbol id="g" overflow="visible">
   <path d="m20.188-6.0781c2.0195 0 3.5547-0.73438 4.6094-2.2031 1.0625-1.4688 1.5938-3.6094 1.5938-6.4219 0-2.8008-0.53125-4.9375-1.5938-6.4062-1.0547-1.4688-2.5898-2.2031-4.6094-2.2031-2.0117 0-3.5586 0.74219-4.6406 2.2188-1.0742 1.4805-1.6094 3.6094-1.6094 6.3906 0 2.793 0.53516 4.9297 1.6094 6.4062 1.082 1.4805 2.6289 2.2188 4.6406 2.2188zm-6.25-19.062c1.2891-1.707 2.7227-2.9688 4.2969-3.7812 1.582-0.82031 3.3984-1.2344 5.4531-1.2344 3.625 0 6.6016 1.4453 8.9375 4.3281 2.332 2.8867 3.5 6.5938 3.5 11.125 0 4.543-1.168 8.2578-3.5 11.141-2.3359 2.8867-5.3125 4.3281-8.9375 4.3281-2.0547 0-3.8711-0.40625-5.4531-1.2188-1.5742-0.82031-3.0078-2.0938-4.2969-3.8125v4.2656h-9.4219v-40.906h9.4219z"/>
  </symbol>
  <symbol id="a" overflow="visible">
   <path d="m0.65625-29.453h9.4062l7.9219 19.984 6.7344-19.984h9.4062l-12.375 32.234c-1.25 3.2812-2.7031 5.5703-4.3594 6.875-1.6562 1.3125-3.8438 1.9688-6.5625 1.9688h-5.4375v-6.1875h2.9375c1.6016 0 2.7656-0.25781 3.4844-0.76562 0.72656-0.5 1.2969-1.4062 1.7031-2.7188l0.26562-0.82812z"/>
  </symbol>
  <symbol id="f" overflow="visible">
   <path d="m20.672-24.062c1.5938 0 2.8008-0.34766 3.625-1.0469 0.82031-0.69531 1.2344-1.7266 1.2344-3.0938 0-1.3516-0.41406-2.3828-1.2344-3.0938-0.82422-0.70703-2.0312-1.0625-3.625-1.0625h-5.6094v8.2969zm0.32812 17.172c2.0391 0 3.5703-0.42578 4.5938-1.2812 1.0195-0.86328 1.5312-2.1602 1.5312-3.8906 0-1.707-0.51172-2.9844-1.5312-3.8281-1.0117-0.85156-2.543-1.2812-4.5938-1.2812h-5.9375v10.281zm9.4219-14.109c2.1641 0.625 3.8438 1.793 5.0312 3.5 1.1953 1.6992 1.7969 3.7812 1.7969 6.25 0 3.7812-1.2812 6.6055-3.8438 8.4688-2.5547 1.8555-6.4375 2.7812-11.656 2.7812h-16.812v-39.25h15.203c5.4453 0 9.3945 0.82422 11.844 2.4688 2.4453 1.6484 3.6719 4.2812 3.6719 7.9062 0 1.918-0.44922 3.5469-1.3438 4.8906-0.89844 1.3359-2.1953 2.3281-3.8906 2.9844z"/>
  </symbol>
  <symbol id="l" overflow="visible">
   <path d="m4.5156-29.453h9.4219v29.453h-9.4219zm0-11.453h9.4219v7.6719h-9.4219z"/>
  </symbol>
  <symbol id="e" overflow="visible">
   <path d="m28.312-28.531v7.6875c-1.2812-0.875-2.5703-1.5195-3.8594-1.9375-1.2812-0.42578-2.6172-0.64062-4-0.64062-2.625 0-4.6719 0.76562-6.1406 2.2969-1.4609 1.5312-2.1875 3.6719-2.1875 6.4219 0 2.7617 0.72656 4.9062 2.1875 6.4375 1.4688 1.5312 3.5156 2.2969 6.1406 2.2969 1.4688 0 2.8633-0.21875 4.1875-0.65625 1.3203-0.4375 2.5469-1.0859 3.6719-1.9531v7.7031c-1.4688 0.55469-2.9648 0.96094-4.4844 1.2344-1.5117 0.26953-3.0312 0.40625-4.5625 0.40625-5.3047 0-9.4531-1.3594-12.453-4.0781-3-2.7266-4.5-6.5234-4.5-11.391 0-4.8516 1.5-8.6406 4.5-11.359 3-2.7266 7.1484-4.0938 12.453-4.0938 1.5391 0 3.0625 0.13672 4.5625 0.40625 1.5 0.27344 2.9922 0.67969 4.4844 1.2188z"/>
  </symbol>
  <symbol id="k" overflow="visible">
   <path d="m4.5156-40.906h9.4219v22.266l10.828-10.812h10.938l-14.375 13.516 15.5 15.938h-11.406l-11.484-12.281v12.281h-9.4219z"/>
  </symbol>
  <symbol id="j" overflow="visible">
   <path d="m4.5156-40.906h9.4219v40.906h-9.4219z"/>
  </symbol>
 </defs>
 <g>
  <path d="m100.92 289.7h29.832c5.4922 110.78 94.492 199.72 205.37 205.25v29.945c0 5.9492 4.8203 10.77 10.77 10.77s10.77-4.8203 10.77-10.77v-29.934c110.86-5.4414 199.86-94.422 205.35-205.26h29.844c5.9492 0 10.77-4.8203 10.77-10.77s-4.8203-10.77-10.77-10.77h-29.844c-5.4961-110.84-94.504-199.82-205.36-205.26v-29.938c0-5.9492-4.8203-10.77-10.77-10.77-5.9492 0-10.77 4.8203-10.77 10.77v29.945c-110.87 5.5352-199.87 94.473-205.37 205.25h-29.828c-5.9492 0-10.77 4.8203-10.77 10.77 0 5.9453 4.8203 10.77 10.77 10.77zm51.367 0h37.512c5.4375 79.035 67.965 140.92 146.32 146.3v37.414c-99.004-5.4844-178.38-84.809-183.83-183.71zm84.324-21.539h-25.309c5.25-66.41 58.352-119.46 124.81-124.7v25.191c0 5.9492 4.8203 10.77 10.77 10.77 5.9492 0 10.77-4.8203 10.77-10.77v-25.188c66.457 5.2383 119.55 58.289 124.8 124.7h-25.289c-5.9492 0-10.77 4.8203-10.77 10.77s4.8203 10.77 10.77 10.77h25.254c-0.875 10.988-2.9297 21.777-6.3711 32.102-5.8164 17.461-15.242 33.594-27.629 47.48-5.4375-13.891-13.543-26.625-24.25-37.328-10.957-10.957-23.961-19.215-37.984-24.629 13.371-11.234 21.898-28.059 21.898-46.848 0-33.742-27.453-61.191-61.199-61.191-33.742 0-61.199 27.449-61.199 61.191 0 18.734 8.4844 35.508 21.785 46.742-28.328 10.832-51.062 33.133-62.277 61.898-19.621-22.07-31.508-49.914-33.859-79.418h25.273c5.9492 0 10.77-4.8203 10.77-10.77 0.007812-5.9531-4.8125-10.773-10.762-10.773zm121.04 146.3v-25.254c0-5.9492-4.8203-10.77-10.77-10.77-5.9492 0-10.77 4.8203-10.77 10.77v25.254c-25.93-2.0547-51.922-11.863-73.664-29.074 10.188-36.621 42.766-62.512 81.902-63.844 0.84766 0.035156 1.6758 0.12891 2.5312 0.12891 0.84375 0 1.6641-0.09375 2.5-0.125 0.20703 0.011719 0.33984 0.015625 0.57813 0.03125 22.258 0.74219 43.203 9.832 58.973 25.602 10.688 10.691 18.336 23.797 22.359 38.207-20.555 16.273-45.699 26.84-73.641 29.074zm-8.7969-114.53c-1.4453-0.058594-2.8398-0.054688-4.0039-0.007813-20.906-1.082-37.625-18.281-37.625-39.453 0-21.863 17.789-39.652 39.66-39.652 21.871 0 39.66 17.789 39.66 39.652-0.003906 21.199-16.754 38.41-37.691 39.461zm8.7969 173.49v-37.422c79.336-5.457 140.93-68.246 146.3-146.3h37.512c-5.4375 98.969-84.832 178.33-183.81 183.72zm183.82-205.26h-37.477c-5.3398-78.273-68.012-140.9-146.34-146.23v-37.488c98.977 5.3984 178.36 84.758 183.81 183.72zm-205.36-183.71v37.477c-78.336 5.3242-141.02 67.957-146.35 146.23h-37.477c5.4492-98.902 84.828-178.23 183.83-183.71z"/>
  <path d="m103.71 21.555c-5.9492 0-10.77 4.8203-10.77 10.77v77.578c0 5.9492 4.8203 10.77 10.77 10.77 5.9492 0 10.77-4.8203 10.77-10.77l-0.003907-66.809h71.438c5.9492 0 10.77-4.8203 10.77-10.77s-4.8203-10.77-10.77-10.77z"/>
  <path d="m609.85 32.324c0-5.9492-4.8203-10.77-10.77-10.77h-82.203c-5.9492 0-10.77 4.8203-10.77 10.77s4.8203 10.77 10.77 10.77h71.438v66.809c0 5.9492 4.8203 10.77 10.77 10.77 5.9492 0 10.77-4.8203 10.77-10.77z"/>
  <path d="m103.71 439.33c-5.9492 0-10.77 4.8203-10.77 10.77v77.578c0 5.9492 4.8203 10.77 10.77 10.77h82.203c5.9492 0 10.77-4.8203 10.77-10.77s-4.8203-10.77-10.77-10.77h-71.438v-66.809c0-5.9453-4.8203-10.77-10.766-10.77z"/>
  <path d="m599.08 439.33c-5.9492 0-10.77 4.8203-10.77 10.77v66.809h-71.438c-5.9492 0-10.77 4.8203-10.77 10.77s4.8203 10.77 10.77 10.77h82.203c5.9492 0 10.77-4.8203 10.77-10.77v-77.578c0.003906-5.9453-4.8164-10.77-10.766-10.77z"/>
  <use x="70" y="721.539062" xlink:href="#m"/>
  <use x="109.515625" y="721.539062" xlink:href="#d"/>
  <use x="136.070312" y="721.539062" xlink:href="#c"/>
  <use x="172.589844" y="721.539062" xlink:href="#b"/>
  <use x="208.925781" y="721.539062" xlink:href="#i"/>
  <use x="234.667969" y="721.539062" xlink:href="#c"/>
  <use x="271.1875" y="721.539062" xlink:href="#h"/>
  <use x="328.476562" y="721.539062" xlink:href="#g"/>
  <use x="367.023438" y="721.539062" xlink:href="#a"/>
  <use x="420.867187" y="721.539062" xlink:href="#f"/>
  <use x="461.910156" y="721.539062" xlink:href="#d"/>
  <use x="488.464844" y="721.539062" xlink:href="#l"/>
  <use x="506.921875" y="721.539062" xlink:href="#e"/>
  <use x="538.839844" y="721.539062" xlink:href="#k"/>
  <use x="574.648438" y="721.539062" xlink:href="#e"/>
  <use x="606.570312" y="721.539062" xlink:href="#j"/>
  <use x="625.027344" y="721.539062" xlink:href="#b"/>
  <use x="661.359375" y="721.539062" xlink:href="#a"/>
 </g>
</svg>
