<?xml version="1.0" encoding="utf-8"?>
<!-- Generator: Adobe Illustrator 26.0.1, SVG Export Plug-In . SVG Version: 6.00 Build 0)  -->
<svg version="1.1" id="Layer_1" xmlns="http://www.w3.org/2000/svg" xmlns:xlink="http://www.w3.org/1999/xlink" x="0px" y="0px"
	 viewBox="0 0 260 98.4" style="enable-background:new 0 0 260 98.4;" xml:space="preserve">
<style type="text/css">
	.st0{fill-rule:evenodd;clip-rule:evenodd;fill:#0058EE;}
	.st1{fill-rule:evenodd;clip-rule:evenodd;fill:#016CF0;}
	.st2{fill-rule:evenodd;clip-rule:evenodd;fill:#01ACFE;}
	.st3{fill-rule:evenodd;clip-rule:evenodd;fill:#00A1FE;}
	.st4{fill-rule:evenodd;clip-rule:evenodd;fill:#1491FE;}
	.st5{fill-rule:evenodd;clip-rule:evenodd;fill:#00D7FE;}
	.st6{fill-rule:evenodd;clip-rule:evenodd;fill:#00E9FF;}
	.st7{fill-rule:evenodd;clip-rule:evenodd;fill:#01BBFF;}
	.st8{fill-rule:evenodd;clip-rule:evenodd;fill:#AAEDF5;}
	.st9{fill-rule:evenodd;clip-rule:evenodd;fill:#295294;}
	.st10{fill-rule:evenodd;clip-rule:evenodd;fill:url(#SVGID_1_);}
	.st11{fill-rule:evenodd;clip-rule:evenodd;fill:#248FC7;}
	.st12{fill-rule:evenodd;clip-rule:evenodd;fill:url(#SVGID_00000054981641672722447780000000388358585250693258_);}
	.st13{fill-rule:evenodd;clip-rule:evenodd;fill:#14B3DD;}
	.st14{fill-rule:evenodd;clip-rule:evenodd;fill:url(#SVGID_00000011014885908753454430000004256428503384512642_);}
	.st15{fill-rule:evenodd;clip-rule:evenodd;fill:#16C6ED;}
	.st16{fill-rule:evenodd;clip-rule:evenodd;fill:#1F598B;}
	.st17{fill-rule:evenodd;clip-rule:evenodd;fill:#D8D8D8;}
	.st18{fill-rule:evenodd;clip-rule:evenodd;fill:#255B97;}
	.st19{fill-rule:evenodd;clip-rule:evenodd;fill:url(#SVGID_00000085229288935214040840000012854129614022208172_);}
	.st20{fill-rule:evenodd;clip-rule:evenodd;fill:#224177;}
	.st21{fill-rule:evenodd;clip-rule:evenodd;fill:#1D75A5;}
	.st22{fill-rule:evenodd;clip-rule:evenodd;fill:#214579;}
	.st23{fill-rule:evenodd;clip-rule:evenodd;fill:#2A5395;}
	.st24{fill-rule:evenodd;clip-rule:evenodd;fill:#306EBB;}
	.st25{fill-rule:evenodd;clip-rule:evenodd;fill:url(#SVGID_00000098183338862685585560000006975472262115782532_);}
	.st26{fill-rule:evenodd;clip-rule:evenodd;fill:#1DA6DC;}
	.st27{fill-rule:evenodd;clip-rule:evenodd;fill:#0700EE;}
	.st28{fill-rule:evenodd;clip-rule:evenodd;fill:#010CF0;}
	.st29{fill-rule:evenodd;clip-rule:evenodd;fill:#0146FE;}
	.st30{fill-rule:evenodd;clip-rule:evenodd;fill:#003CFE;}
	.st31{fill-rule:evenodd;clip-rule:evenodd;fill:#1433FE;}
	.st32{fill-rule:evenodd;clip-rule:evenodd;fill:#0071FE;}
	.st33{fill-rule:evenodd;clip-rule:evenodd;fill:#0082FF;}
	.st34{fill-rule:evenodd;clip-rule:evenodd;fill:#0155FF;}
	.st35{fill-rule:evenodd;clip-rule:evenodd;fill:#AACFF5;}
	.st36{fill:#3459E6;}
</style>
<g>
	<g>
		<g>
			<path class="st0" d="M45.4,42.1v41.1L31.8,55L45.4,42.1z"/>
			<path class="st1" d="M45.4,42.1H25.7L31.9,55L45.4,42.1z"/>
			<path class="st2" d="M25.7,42.1L31.9,55l-5.8,5.1L21,53.9L25.7,42.1z"/>
			<path class="st3" d="M31.8,55l13.6,28.3L26.1,60.1L31.8,55z"/>
			<path class="st4" d="M45.4,42.1H25.7l5.7-14.7h14V42.1z"/>
			<path class="st5" d="M25.7,42.1L13.1,17.6l18.3,9.8L25.7,42.1z"/>
			<path class="st6" d="M25.7,42.1l-8-4.2l-4.6-20.3L25.7,42.1z"/>
			<path class="st5" d="M17.7,37.9L0,28.8l13.1-11.1L17.7,37.9z"/>
			<path class="st7" d="M25.7,42.1L21,53.9l-3.3-16L25.7,42.1z"/>
			<path class="st2" d="M17.7,37.9L0,28.8l21,25.1L17.7,37.9z"/>
			<path class="st8" d="M13.1,17.6L0,28.8l6.2-9.3l10-7L13.1,17.6z"/>
		</g>
		<path class="st9" d="M15.2,17L26.8,23v-7.3l-8.9-3.3L15.2,17z"/>
		
			<linearGradient id="SVGID_1_" gradientUnits="userSpaceOnUse" x1="25.1337" y1="85.3399" x2="28.9427" y2="95.8051" gradientTransform="matrix(1 0 0 -1 0 100.43)">
			<stop  offset="1.892810e-02" style="stop-color:#2E66B3"/>
			<stop  offset="0.9205" style="stop-color:#28C4FF"/>
		</linearGradient>
		<path class="st10" d="M35.1,6.9L35,10.6l-6.1,1.8l-2.1,3.3l-8.9-3.3L35.1,6.9z"/>
		<path class="st11" d="M35.1,6.9l3.7,2.6L35,10.6L35.1,6.9z"/>
		
			<linearGradient id="SVGID_00000068663686213972954110000015514126059405917830_" gradientUnits="userSpaceOnUse" x1="35.1194" y1="92.2725" x2="57.1305" y2="92.2725" gradientTransform="matrix(1 0 0 -1 0 100.43)">
			<stop  offset="0.2596" style="stop-color:#1C98CB"/>
			<stop  offset="0.8246" style="stop-color:#1ACDF8"/>
		</linearGradient>
		<path style="fill-rule:evenodd;clip-rule:evenodd;fill:url(#SVGID_00000068663686213972954110000015514126059405917830_);" d="
			M35.1,6.9h22L54,9.5H38.8L35.1,6.9z"/>
		<path class="st13" d="M57.2,6.9l0.8,3.7L54,9.5L57.2,6.9z"/>
		
			<linearGradient id="SVGID_00000120548088897504662140000016033601275217140671_" gradientUnits="userSpaceOnUse" x1="62.4672" y1="73.2419" x2="67.1859" y2="90.8526" gradientTransform="matrix(1 0 0 -1 0 100.43)">
			<stop  offset="0.2349" style="stop-color:#2E66B3"/>
			<stop  offset="0.8679" style="stop-color:#1AE1FF"/>
		</linearGradient>
		<path style="fill-rule:evenodd;clip-rule:evenodd;fill:url(#SVGID_00000120548088897504662140000016033601275217140671_);" d="
			M57.2,6.9L61.1,8L75.9,17l-16.7,9.3l0.3-4.4l7.7-3.9l-3.1-5.2L58,10.6L57.2,6.9z"/>
		<path class="st15" d="M61,8l11.6,3.7l3.1,5.2L61,8z"/>
		<path class="st16" d="M59.4,21.9l-0.3,4.4l-3.3-2.4L59.4,21.9z"/>
		<path class="st17" d="M45.9,88.9c13.8,0,25.1,0.6,25.1,1.3c0,0.8-11.2,1.2-25.1,1.2S20.9,91,20.9,90.2S32.1,88.9,45.9,88.9z"/>
		<path class="st18" d="M59.1,26.3l-3.3-2.4h-4.9l7.2,2.4H59.1z"/>
		
			<linearGradient id="SVGID_00000121996514926966437340000013114214516731913638_" gradientUnits="userSpaceOnUse" x1="33.8138" y1="83.8622" x2="53.0712" y2="83.8622" gradientTransform="matrix(1 0 0 -1 0 100.43)">
			<stop  offset="0" style="stop-color:#2184BD"/>
			<stop  offset="0.6384" style="stop-color:#2469A4"/>
		</linearGradient>
		<path style="fill-rule:evenodd;clip-rule:evenodd;fill:url(#SVGID_00000121996514926966437340000013114214516731913638_);" d="
			M40.9,11.8l12.2,9.6h-9.4l-9.8-3.3l0.7-4.4L40.9,11.8z"/>
		<path class="st20" d="M58.2,26.3H32.5l-0.3-4.6l4.1,2.2h14.5L58.2,26.3z"/>
		<path class="st21" d="M53.1,21.4l5.8-3.1l-0.5-4.6l-5.9-1.9l-5.3,5L53.1,21.4z"/>
		<path class="st22" d="M33.8,18.1c0,0,0.1,0,0.2,0.1c1.3,0.5,9.9,3.2,9.9,3.2H39"/>
		<path class="st23" d="M30.5,25l2.1,1.2v-4.5l-2.1-1.2V25z"/>
		<path class="st24" d="M31.7,17l1.4-2.8l1.3-0.5l-0.7,4.4L31.7,17z"/>
		
			<linearGradient id="SVGID_00000141453471646557854510000001459483492401758132_" gradientUnits="userSpaceOnUse" x1="43.3745" y1="85.6256" x2="50.1741" y2="91.3312" gradientTransform="matrix(1 0 0 -1 0 100.43)">
			<stop  offset="0.3918" style="stop-color:#1D81B5"/>
			<stop  offset="0.7949" style="stop-color:#1C9ED0"/>
		</linearGradient>
		<path style="fill-rule:evenodd;clip-rule:evenodd;fill:url(#SVGID_00000141453471646557854510000001459483492401758132_);" d="
			M40.9,11.8l6.3,5l5.3-5H40.9z"/>
		<path class="st26" d="M58.2,13.7l0.6,4.6l2.6-1.6L60,14.3L58.2,13.7z"/>
		<path class="st27" d="M58.9,55L45.4,83.3V42.1L58.9,55z"/>
		<path class="st28" d="M58.9,55l6.2-12.9H45.4L58.9,55z"/>
		<path class="st29" d="M69.9,53.9l-5.2,6.2L59,55l6.2-12.9L69.9,53.9z"/>
		<path class="st30" d="M64.7,60.1L45.4,83.3L58.9,55L64.7,60.1z"/>
		<path class="st31" d="M45.4,27.4h14l5.7,14.7H45.4V27.4z"/>
		<path class="st32" d="M59.4,27.4l18.3-9.8L65.2,42.1L59.4,27.4z"/>
		<path class="st33" d="M77.8,17.6l-4.6,20.3l-8,4.2L77.8,17.6z"/>
		<path class="st32" d="M77.8,17.6l13.1,11.1l-17.6,9.1L77.8,17.6z"/>
		<path class="st34" d="M73.1,37.9l-3.3,16l-4.7-11.7L73.1,37.9z"/>
		<path class="st29" d="M69.9,53.9l20.9-25.1l-17.6,9.1L69.9,53.9z"/>
		<path class="st35" d="M74.6,12.4l10,7l6.2,9.3L77.8,17.6L74.6,12.4z"/>
	</g>
	<g>
		<g>
			<path class="st36" d="M102.3,52.7V33h8.8c2.6,0,4.4,0.7,5.6,2.1c0.9,1.1,1.2,2.3,1.2,3.9c0,1.6-0.4,2.9-1.2,3.9
				c-1.2,1.4-3.1,2.1-5.6,2.1h-5.4v7.6H102.3z M105.8,35.8v6.5h5.2c1,0,1.7-0.2,2.4-0.7c0.8-0.6,1.2-1.4,1.2-2.6
				c0-2.2-1.2-3.3-3.5-3.3C111.1,35.8,105.8,35.8,105.8,35.8z"/>
			<path class="st36" d="M122.3,52.7V33h9.6c2.2,0,3.8,0.5,5,1.3c1.2,1,1.7,2.2,1.7,3.9c0,2.6-1.2,4.2-3.4,5l0,0c2,0.3,3,1.6,3,4.1
				c0,2.7,0.4,4.4,1.1,5.2h-3.7c-0.4-0.6-0.6-1.5-0.6-2.9c0-1.9-0.3-3.2-0.8-3.9c-0.6-0.9-1.6-1.2-3.2-1.2h-5.2v8.1L122.3,52.7
				L122.3,52.7z M125.8,35.8v6.2h5.8c2.3,0,3.5-1.1,3.5-3.2c0-2-1.2-3-3.5-3C131.6,35.8,125.8,35.8,125.8,35.8z"/>
			<path class="st36" d="M143.2,52.7V33h14.5v3h-11v5.2H157V44h-10.2v5.8h11.1v3H143.2z"/>
			<path class="st36" d="M179.3,39.3h-3.6c-0.7-2.6-2.3-3.9-5-3.9c-2,0-3.6,0.8-4.7,2.3c-1,1.3-1.4,3.1-1.4,5.2
				c0,2.1,0.5,3.7,1.4,5.2c1.2,1.5,2.7,2.3,4.7,2.3c1.5,0,2.7-0.5,3.7-1.5c0.9-1,1.3-2.1,1.5-3.7h3.5c-0.2,2.4-1.1,4.3-2.6,5.8
				c-1.5,1.4-3.6,2.2-6,2.2c-3,0-5.3-1.1-7.1-3.1c-1.7-1.9-2.6-4.3-2.6-7.2c0-2.9,0.9-5.4,2.6-7.3c1.8-2,4.1-3.1,7.1-3.1
				c2.3,0,4.2,0.6,5.8,1.7C178.2,35.5,179.1,37.1,179.3,39.3z"/>
			<path class="st36" d="M183.7,52.7V33h3.6v19.7H183.7z"/>
			<path class="st36" d="M191.5,46.1h3.6c0,1.4,0.5,2.5,1.5,3.3c0.9,0.7,2.1,1,3.7,1c1.4,0,2.6-0.3,3.3-1c0.7-0.6,1-1.2,1-2
				c0-1.2-0.6-2-1.6-2.4c-0.2-0.1-2.1-0.6-6.1-1.6c-3-0.8-4.4-2.4-4.4-5c0-1.8,0.8-3.3,2.3-4.4c1.3-1,3.1-1.4,5.1-1.4
				c2.2,0,4,0.6,5.5,1.6c1.5,1.2,2.3,2.7,2.3,4.7H204c-0.2-2.3-1.6-3.5-4.3-3.5c-1,0-1.8,0.2-2.5,0.5c-0.9,0.5-1.2,1.2-1.2,2
				c0,1.2,0.8,2.1,2.4,2.5c1.6,0.4,3.6,1,5.8,1.5c1.2,0.4,2.2,1.1,3,2c0.7,0.9,1,1.9,1,3c0,2-0.9,3.7-2.5,4.7
				c-1.4,1-3.3,1.4-5.5,1.4c-2.4,0-4.4-0.6-5.9-1.6C192.3,50.2,191.5,48.5,191.5,46.1z"/>
			<path class="st36" d="M212,52.7V33h3.6v19.7H212z"/>
			<path class="st36" d="M229.6,32.5c3,0,5.3,1.1,7.1,3.1c1.7,1.9,2.6,4.3,2.6,7.3c0,2.9-0.9,5.3-2.6,7.2c-1.8,2-4.1,3.1-7.1,3.1
				s-5.3-1.1-7.1-3.1c-1.7-1.9-2.6-4.3-2.6-7.2s0.9-5.3,2.6-7.3C224.3,33.6,226.6,32.5,229.6,32.5z M229.6,35.3
				c-2,0-3.6,0.8-4.7,2.3c-1,1.3-1.4,3.1-1.4,5.2c0,2.1,0.5,3.7,1.4,5.2c1.2,1.5,2.7,2.3,4.7,2.3c2,0,3.6-0.8,4.7-2.3
				c1-1.3,1.4-3.1,1.4-5.2c0-2.1-0.5-3.7-1.4-5.2C233.2,36.1,231.6,35.3,229.6,35.3z"/>
			<path class="st36" d="M243.5,52.7V33h3.7l9.2,14.5V33h3.4v19.7h-3.7l-9.1-14.4h-0.1v14.4H243.5z"/>
		</g>
		<g>
			<path d="M105.2,65.8v-7.5h-3v-1.7h8.1v1.7h-3v7.5H105.2z"/>
			<path d="M111.1,65.8l4.1-9.3h2.1l4.1,9.3h-2.2l-3.4-8.2h0.9l-3.4,8.2H111.1z M113.2,63.8l0.6-1.6h4.8l0.6,1.6H113.2z"/>
			<path d="M123.8,65.8v-9.3h2.1V64h4.6v1.7L123.8,65.8L123.8,65.8z"/>
			<path d="M135.3,64.1h5.1v1.7h-7.2v-9.3h7v1.7h-4.9V64.1z M135.1,60.2h4.4v1.7h-4.4V60.2z"/>
			<path d="M143.4,65.8v-9.3h1.7l5.5,6.7h-0.9v-6.7h2.1v9.3h-1.7l-5.5-6.7h0.9v6.7H143.4z"/>
			<path d="M157.3,65.8v-7.5h-3v-1.7h8.1v1.7h-3v7.5H157.3z"/>
			<path d="M173.1,65.9c-0.8,0-1.4-0.1-2.1-0.3s-1.2-0.5-1.6-0.8l0.8-1.6c0.4,0.3,0.9,0.5,1.4,0.7c0.6,0.2,1.1,0.3,1.6,0.3
				c0.4,0,0.8,0,1.1-0.1c0.3-0.1,0.5-0.2,0.6-0.4c0.1-0.2,0.2-0.3,0.2-0.5c0-0.3-0.1-0.5-0.3-0.6c-0.2-0.2-0.5-0.3-0.8-0.4
				c-0.3-0.1-0.7-0.2-1.1-0.3c-0.4-0.1-0.8-0.2-1.2-0.3c-0.4-0.1-0.8-0.3-1.1-0.5c-0.3-0.2-0.6-0.5-0.8-0.8
				c-0.2-0.3-0.3-0.8-0.3-1.2c0-0.6,0.1-1.1,0.4-1.4c0.3-0.5,0.7-0.8,1.2-1.1s1.3-0.4,2.2-0.4c0.6,0,1.2,0.1,1.7,0.2
				c0.6,0.1,1.1,0.4,1.5,0.6l-0.7,1.6c-0.4-0.2-0.9-0.4-1.2-0.6c-0.5-0.1-0.9-0.2-1.2-0.2s-0.8,0-1.1,0.1s-0.5,0.2-0.6,0.4
				c-0.1,0.2-0.2,0.4-0.2,0.6c0,0.3,0.1,0.5,0.3,0.6c0.2,0.2,0.5,0.3,0.8,0.4c0.3,0.1,0.7,0.2,1.1,0.3c0.4,0.1,0.8,0.2,1.2,0.3
				c0.4,0.1,0.8,0.3,1.1,0.5c0.3,0.2,0.6,0.5,0.8,0.8c0.2,0.3,0.3,0.8,0.3,1.2c0,0.5-0.1,1-0.4,1.4c-0.3,0.5-0.8,0.8-1.3,1.1
				C174.8,65.7,174,65.9,173.1,65.9z"/>
			<path d="M184.4,65.9c-0.8,0-1.4-0.1-2-0.4c-0.6-0.2-1.2-0.6-1.6-1c-0.5-0.5-0.8-1-1.1-1.5s-0.4-1.2-0.4-1.9s0.1-1.3,0.4-1.9
				c0.3-0.6,0.6-1.1,1.1-1.5s1-0.8,1.6-1c0.6-0.2,1.2-0.4,2-0.4s1.4,0.1,2,0.4c0.6,0.2,1.2,0.6,1.6,1c0.5,0.5,0.8,1,1.1,1.5
				c0.3,0.6,0.4,1.2,0.4,1.9s-0.1,1.3-0.4,1.9c-0.3,0.6-0.6,1.1-1.1,1.5c-0.5,0.5-1,0.8-1.6,1C185.7,65.8,185,65.9,184.4,65.9z
				 M184.3,64.1c0.4,0,0.8-0.1,1.2-0.2c0.4-0.2,0.7-0.4,1-0.6c0.3-0.3,0.5-0.6,0.6-1c0.2-0.4,0.2-0.8,0.2-1.2c0-0.5-0.1-0.9-0.2-1.2
				c-0.2-0.4-0.4-0.7-0.6-1c-0.3-0.3-0.6-0.5-1-0.6c-0.4-0.2-0.8-0.2-1.2-0.2c-0.4,0-0.8,0.1-1.2,0.2c-0.4,0.2-0.7,0.4-1,0.6
				c-0.3,0.3-0.5,0.6-0.6,1c-0.2,0.4-0.2,0.8-0.2,1.2c0,0.5,0.1,0.9,0.2,1.2c0.2,0.4,0.4,0.7,0.6,1c0.3,0.3,0.6,0.5,1,0.6
				S183.9,64.1,184.3,64.1z"/>
			<path d="M192.3,65.8v-9.3h2.1V64h4.6v1.7L192.3,65.8L192.3,65.8z"/>
			<path d="M205.7,65.9c-1.3,0-2.3-0.4-3.1-1.1c-0.8-0.8-1.2-1.8-1.2-3.2v-5.2h2.1v5.1c0,0.9,0.2,1.5,0.6,1.9
				c0.4,0.4,0.9,0.6,1.5,0.6s1.2-0.2,1.5-0.6c0.4-0.4,0.6-1.1,0.6-1.9v-5.1h2.1v5.2c0,1.3-0.4,2.4-1.2,3.2
				C208,65.6,206.9,65.9,205.7,65.9z"/>
			<path d="M215,65.8v-7.5h-3v-1.7h8.1v1.7h-3v7.5H215z"/>
			<path d="M222.7,65.8v-9.3h2.1v9.3H222.7z"/>
			<path d="M232.8,65.9c-0.8,0-1.4-0.1-2-0.4c-0.6-0.2-1.2-0.6-1.6-1c-0.5-0.5-0.8-1-1.1-1.5c-0.3-0.6-0.4-1.2-0.4-1.9
				s0.1-1.3,0.4-1.9c0.3-0.6,0.6-1.1,1.1-1.5s1-0.8,1.6-1c0.6-0.2,1.2-0.4,2-0.4s1.4,0.1,2,0.4c0.6,0.2,1.2,0.6,1.6,1
				c0.5,0.5,0.8,1,1.1,1.5c0.3,0.6,0.4,1.2,0.4,1.9s-0.1,1.3-0.4,1.9c-0.3,0.6-0.6,1.1-1.1,1.5c-0.5,0.5-1,0.8-1.6,1
				C234.2,65.8,233.6,65.9,232.8,65.9z M232.8,64.1c0.4,0,0.8-0.1,1.2-0.2c0.4-0.2,0.7-0.4,1-0.6c0.3-0.3,0.5-0.6,0.6-1
				c0.2-0.4,0.2-0.8,0.2-1.2c0-0.5-0.1-0.9-0.2-1.2c-0.2-0.4-0.4-0.7-0.6-1c-0.3-0.3-0.6-0.5-1-0.6c-0.4-0.2-0.8-0.2-1.2-0.2
				c-0.4,0-0.8,0.1-1.2,0.2c-0.4,0.2-0.7,0.4-1,0.6c-0.3,0.3-0.5,0.6-0.6,1c-0.2,0.4-0.2,0.8-0.2,1.2c0,0.5,0.1,0.9,0.2,1.2
				c0.2,0.4,0.4,0.7,0.6,1c0.3,0.3,0.6,0.5,1,0.6S232.4,64.1,232.8,64.1z"/>
			<path d="M240.9,65.8v-9.3h1.7l5.5,6.7h-0.9v-6.7h2.1v9.3h-1.7l-5.5-6.7h0.9v6.7H240.9z"/>
			<path d="M256,65.9c-0.8,0-1.4-0.1-2.1-0.3s-1.2-0.5-1.6-0.8l0.8-1.6c0.4,0.3,0.9,0.5,1.4,0.7c0.6,0.2,1.1,0.3,1.6,0.3
				c0.4,0,0.8,0,1.1-0.1c0.3-0.1,0.5-0.2,0.6-0.4c0.1-0.2,0.2-0.3,0.2-0.5c0-0.3-0.1-0.5-0.3-0.6c-0.2-0.2-0.5-0.3-0.8-0.4
				c-0.3-0.1-0.7-0.2-1.1-0.3c-0.4-0.1-0.8-0.2-1.2-0.3c-0.4-0.1-0.8-0.3-1.1-0.5c-0.3-0.2-0.6-0.5-0.8-0.8
				c-0.2-0.3-0.3-0.8-0.3-1.2c0-0.6,0.1-1.1,0.4-1.4c0.3-0.5,0.7-0.8,1.2-1.1c0.6-0.3,1.3-0.4,2.2-0.4c0.6,0,1.2,0.1,1.7,0.2
				c0.6,0.1,1.1,0.4,1.5,0.6l-0.7,1.6c-0.4-0.2-0.9-0.4-1.2-0.6c-0.5-0.1-0.9-0.2-1.2-0.2s-0.8,0-1.1,0.1c-0.3,0.1-0.5,0.2-0.6,0.4
				s-0.2,0.4-0.2,0.6c0,0.3,0.1,0.5,0.3,0.6c0.2,0.2,0.5,0.3,0.8,0.4c0.3,0.1,0.7,0.2,1.1,0.3c0.4,0.1,0.8,0.2,1.2,0.3
				c0.4,0.1,0.8,0.3,1.1,0.5s0.6,0.5,0.8,0.8c0.2,0.3,0.3,0.8,0.3,1.2c0,0.5-0.1,1-0.4,1.4c-0.3,0.5-0.8,0.8-1.3,1.1
				C257.6,65.8,256.8,65.9,256,65.9z"/>
		</g>
	</g>
</g>
</svg>
