<svg id="Layer_1" data-name="Layer 1" xmlns="http://www.w3.org/2000/svg" xmlns:xlink="http://www.w3.org/1999/xlink" viewBox="0 0 280 108"><defs><style>.cls-1{fill:#0058ee;}.cls-1,.cls-10,.cls-11,.cls-12,.cls-13,.cls-14,.cls-15,.cls-16,.cls-17,.cls-18,.cls-19,.cls-2,.cls-20,.cls-21,.cls-22,.cls-23,.cls-24,.cls-25,.cls-26,.cls-27,.cls-28,.cls-29,.cls-3,.cls-30,.cls-31,.cls-32,.cls-33,.cls-34,.cls-35,.cls-36,.cls-4,.cls-5,.cls-6,.cls-7,.cls-8,.cls-9{fill-rule:evenodd;}.cls-2{fill:#016cf0;}.cls-3{fill:#01acfe;}.cls-4{fill:#00a1fe;}.cls-5{fill:#1491fe;}.cls-6{fill:#00d7fe;}.cls-7{fill:#00e9ff;}.cls-8{fill:#01bbff;}.cls-9{fill:#aaedf5;}.cls-10{fill:#295294;}.cls-11{fill:url(#linear-gradient);}.cls-12{fill:#248fc7;}.cls-13{fill:url(#linear-gradient-2);}.cls-14{fill:#14b3dd;}.cls-15{fill:url(#linear-gradient-3);}.cls-16{fill:#16c6ed;}.cls-17{fill:#1f598b;}.cls-18{fill:#d8d8d8;}.cls-19{fill:#255b97;}.cls-20{fill:url(#linear-gradient-4);}.cls-21{fill:#224177;}.cls-22{fill:#1d75a5;}.cls-23{fill:#214579;}.cls-24{fill:#2a5395;}.cls-25{fill:#306ebb;}.cls-26{fill:url(#linear-gradient-5);}.cls-27{fill:#1da6dc;}.cls-28{fill:#0700ee;}.cls-29{fill:#010cf0;}.cls-30{fill:#0146fe;}.cls-31{fill:#003cfe;}.cls-32{fill:#1433fe;}.cls-33{fill:#0071fe;}.cls-34{fill:#0082ff;}.cls-35{fill:#0155ff;}.cls-36{fill:#aacff5;}.cls-37{fill:#3459e6;}</style><linearGradient id="linear-gradient" x1="30.91" y1="18.47" x2="34.87" y2="7.59" gradientUnits="userSpaceOnUse"><stop offset="0.02" stop-color="#2e66b3"/><stop offset="0.92" stop-color="#28c4ff"/></linearGradient><linearGradient id="linear-gradient-2" x1="41.34" y1="11.3" x2="64.26" y2="11.3" gradientUnits="userSpaceOnUse"><stop offset="0.26" stop-color="#1c98cb"/><stop offset="0.82" stop-color="#1acdf8"/></linearGradient><linearGradient id="linear-gradient-3" x1="69.72" y1="31.05" x2="74.63" y2="12.72" gradientUnits="userSpaceOnUse"><stop offset="0.23" stop-color="#2e66b3"/><stop offset="0.87" stop-color="#1ae1ff"/></linearGradient><linearGradient id="linear-gradient-4" x1="39.98" y1="20.04" x2="60.01" y2="20.04" gradientUnits="userSpaceOnUse"><stop offset="0" stop-color="#2184bd"/><stop offset="0.64" stop-color="#2469a4"/></linearGradient><linearGradient id="linear-gradient-5" x1="49.91" y1="18.16" x2="56.98" y2="12.23" gradientUnits="userSpaceOnUse"><stop offset="0.39" stop-color="#1d81b5"/><stop offset="0.79" stop-color="#1c9ed0"/></linearGradient></defs><path class="cls-1" d="M52,46.61V89.4L37.94,60Z"/><path class="cls-2" d="M52,46.61H31.49L37.94,60Z"/><path class="cls-3" d="M31.49,46.61,37.94,60,32,65.29l-5.43-6.45Z"/><path class="cls-4" d="M37.94,60,52,89.4,32,65.29Z"/><path class="cls-5" d="M52,46.61H31.49l5.94-15.28H52Z"/><path class="cls-6" d="M31.49,46.61,18.42,21.15l19,10.18Z"/><path class="cls-7" d="M31.49,46.61,23.17,42.2,18.42,21.15Z"/><path class="cls-6" d="M23.17,42.2,4.83,32.69,18.42,21.15Z"/><path class="cls-8" d="M31.49,46.61s-4.92,12.23-4.92,12.23L23.17,42.2Z"/><path class="cls-3" d="M23.17,42.2,4.83,32.69,26.57,58.84Z"/><path class="cls-9" d="M18.42,21.15,4.83,32.69,11.29,23l10.35-7.3Z"/><path class="cls-10" d="M20.62,20.47l12.06,6.27V19.11l-9.34-3.4Z"/><path class="cls-11" d="M41.34,9.94l-.17,3.91-6.28,1.86-2.21,3.4-9.34-3.4Z"/><path class="cls-12" d="M41.34,9.94l3.9,2.72-4.07,1.19Z"/><path class="cls-13" d="M41.34,9.94H64.26L61,12.66H45.24Z"/><path class="cls-14" d="M64.26,9.94l.85,3.91L61,12.66Z"/><path class="cls-15" d="M64.26,9.94l4.07,1.19,15.36,9.29L66.33,30.14l.31-4.58,8-4.07-3.23-5.44-6.28-2.2Z"/><path class="cls-16" d="M68.33,11.13,80.44,15l3.25,5.39Z"/><path class="cls-17" d="M66.64,25.56l-.31,4.58L62.9,27.6Z"/><path class="cls-18" d="M52.63,95.34c14.39,0,26.06.61,26.06,1.36S67,98.06,52.63,98.06s-26.06-.61-26.06-1.36S38.23,95.34,52.63,95.34Z"/><path class="cls-19" d="M66.33,30.14,62.9,27.6H57.81l7.47,2.54Z"/><path class="cls-20" d="M47.28,15,60,25.05H50.17L40,21.66l.68-4.59Z"/><path class="cls-21" d="M65.28,30.14H38.62l-.27-4.81L42.7,27.6H57.81Z"/><path class="cls-22" d="M60,25.05,66,21.83l-.51-4.76-6.11-2-5.5,5.17Z"/><path class="cls-23" d="M40,21.66l.19.06,10.34,3.33h-5.1"/><path class="cls-24" d="M36.47,28.87l2.15,1.27V25.49L36.47,24.2Z"/><path class="cls-25" d="M37.77,20.47l1.53-2.89,1.36-.51L40,21.66Z"/><path class="cls-26" d="M47.28,15l6.56,5.17L59.34,15Z"/><path class="cls-27" d="M65.45,17.07,66,21.83l2.71-1.7-1.52-2.55Z"/><path class="cls-28" d="M66.13,60,52,89.4V46.61Z"/><path class="cls-29" d="M66.13,60l6.45-13.42H52Z"/><path class="cls-30" d="M77.5,58.84l-5.43,6.45L66.13,60l6.45-13.42Z"/><path class="cls-31" d="M72.07,65.29,52,89.4,66.13,60Z"/><path class="cls-32" d="M52,31.33H66.64l5.94,15.28H52Z"/><path class="cls-33" d="M66.64,31.33l19-10.18L72.58,46.61Z"/><path class="cls-34" d="M85.65,21.15,80.9,42.2l-8.32,4.41Z"/><path class="cls-33" d="M85.65,21.15,99.24,32.69,80.9,42.2Z"/><path class="cls-35" d="M80.9,42.2,77.5,58.84s-4.94-12.22-4.92-12.23Z"/><path class="cls-30" d="M77.5,58.84,99.24,32.69,80.9,42.2Z"/><path class="cls-36" d="M82.43,15.71,92.78,23l6.46,9.68L85.65,21.15Z"/><path class="cls-37" d="M111.24,57.57V37.12h9.25q4,0,5.81,2.2a6.25,6.25,0,0,1,1.33,4.13,6.08,6.08,0,0,1-1.33,4.07q-1.81,2.2-5.81,2.2h-5.58v7.85ZM114.91,40V46.8h5.38a4.16,4.16,0,0,0,2.46-.71A3.12,3.12,0,0,0,124,43.42Q124,40,120.34,40Z"/><path class="cls-37" d="M132,57.57V37.12h10a8,8,0,0,1,5.17,1.44,5,5,0,0,1,1.76,4.09q0,4-3.46,5.15v.06q3.11.44,3.11,4.33,0,4.19,1.14,5.38H145.8a5.94,5.94,0,0,1-.56-3,7.54,7.54,0,0,0-.82-4.13c-.61-.86-1.72-1.29-3.35-1.29h-5.4v8.42ZM135.67,40v6.39h6q3.59,0,3.58-3.27,0-3.12-3.64-3.12Z"/><path class="cls-37" d="M153.84,57.57V37.12h15.09v3.09H157.51v5.36h10.57v2.92H157.51v6h11.63v3.09Z"/><path class="cls-37" d="M191.33,43.62h-3.67a4.92,4.92,0,0,0-5.22-4.07A5.63,5.63,0,0,0,177.57,42a9.05,9.05,0,0,0-1.5,5.36,9,9,0,0,0,1.5,5.35,5.6,5.6,0,0,0,4.87,2.44,4.91,4.91,0,0,0,3.79-1.58,6.26,6.26,0,0,0,1.55-3.78h3.58a8.59,8.59,0,0,1-2.68,6,8.78,8.78,0,0,1-6.24,2.29,9.33,9.33,0,0,1-7.37-3.18,10.92,10.92,0,0,1-2.67-7.53,11,11,0,0,1,2.67-7.57,9.37,9.37,0,0,1,7.37-3.15,9.8,9.8,0,0,1,6.05,1.83A7.07,7.07,0,0,1,191.33,43.62Z"/><path class="cls-37" d="M195.89,57.57V37.12h3.66V57.57Z"/><path class="cls-37" d="M204,50.76h3.67a4,4,0,0,0,1.55,3.38,6.28,6.28,0,0,0,3.76,1,5.28,5.28,0,0,0,3.44-1,2.65,2.65,0,0,0,1-2.12,2.45,2.45,0,0,0-1.74-2.52c-.15-.05-2.24-.62-6.25-1.69q-4.63-1.23-4.64-5.18a5.25,5.25,0,0,1,2.41-4.56,9.14,9.14,0,0,1,5.25-1.46,9.3,9.3,0,0,1,5.67,1.66,5.8,5.8,0,0,1,2.38,4.87h-3.67c-.16-2.4-1.66-3.61-4.52-3.61a5.48,5.48,0,0,0-2.56.55,2.29,2.29,0,0,0-1.29,2.12c0,1.32.83,2.19,2.5,2.62L217,46.43a5.62,5.62,0,0,1,3.08,2.12,5.27,5.27,0,0,1,1,3.09,5.56,5.56,0,0,1-2.62,4.93,10.19,10.19,0,0,1-5.72,1.49,9.92,9.92,0,0,1-6.14-1.75A6.67,6.67,0,0,1,204,50.76Z"/><path class="cls-37" d="M225.42,57.57V37.12h3.67V57.57Z"/><path class="cls-37" d="M243.68,36.63a9.36,9.36,0,0,1,7.37,3.15,11.06,11.06,0,0,1,2.67,7.57,10.92,10.92,0,0,1-2.67,7.53,10.13,10.13,0,0,1-14.74,0,10.92,10.92,0,0,1-2.67-7.53,11.06,11.06,0,0,1,2.67-7.57A9.37,9.37,0,0,1,243.68,36.63Zm0,2.92A5.64,5.64,0,0,0,238.81,42a9.05,9.05,0,0,0-1.5,5.36,9,9,0,0,0,1.5,5.35,6.09,6.09,0,0,0,9.75,0,9.11,9.11,0,0,0,1.49-5.35A9.12,9.12,0,0,0,248.56,42,5.66,5.66,0,0,0,243.68,39.55Z"/><path class="cls-37" d="M258.1,57.57V37.12H262l9.61,15.07V37.12h3.5V57.57h-3.88l-9.54-15h-.09v15Z"/><path d="M114.27,71.2V63.36h-3.09V61.54h8.41v1.82H116.5V71.2Z"/><path d="M120.42,71.2l4.29-9.66h2.21l4.33,9.66H128.9l-3.54-8.53h.89l-3.54,8.53Zm2.16-2.07.57-1.7h5l.58,1.7Z"/><path d="M133.63,71.2V61.54h2.25v7.84h4.81V71.2Z"/><path d="M145.56,69.41h5.26V71.2h-7.48V61.54h7.3v1.79h-5.08Zm-.16-4H150v1.75H145.4Z"/><path d="M154,71.2V61.54h1.84l5.7,7h-.9v-7h2.21V71.2H161l-5.69-7h.89v7Z"/><path d="M168.5,71.2V63.36h-3.09V61.54h8.41v1.82h-3.09V71.2Z"/><path d="M184.87,71.37a7.85,7.85,0,0,1-2.23-.31,5.24,5.24,0,0,1-1.71-.81l.75-1.68a5.59,5.59,0,0,0,1.47.72,5.39,5.39,0,0,0,1.72.28,3.5,3.5,0,0,0,1.07-.13,1.44,1.44,0,0,0,.6-.37.78.78,0,0,0,.19-.53.75.75,0,0,0-.3-.62,2.55,2.55,0,0,0-.81-.37c-.33-.1-.7-.19-1.1-.28s-.79-.19-1.19-.31a4.8,4.8,0,0,1-1.1-.5,2.33,2.33,0,0,1-.8-.82,2.4,2.4,0,0,1-.3-1.26,2.75,2.75,0,0,1,.44-1.51,3,3,0,0,1,1.35-1.09,5.55,5.55,0,0,1,2.27-.41,7.39,7.39,0,0,1,1.8.22,5.31,5.31,0,0,1,1.55.64l-.7,1.68a6,6,0,0,0-1.34-.56,5.24,5.24,0,0,0-1.33-.18,3.12,3.12,0,0,0-1.06.14,1.32,1.32,0,0,0-.59.39.94.94,0,0,0-.18.56.76.76,0,0,0,.3.62,2,2,0,0,0,.8.36l1.11.27a10.65,10.65,0,0,1,1.2.32,5.66,5.66,0,0,1,1.09.49,2.45,2.45,0,0,1,.8.8,2.34,2.34,0,0,1,.31,1.25,2.61,2.61,0,0,1-.45,1.49A3.11,3.11,0,0,1,187.15,71,5.46,5.46,0,0,1,184.87,71.37Z"/><path d="M196.55,71.37a6,6,0,0,1-2.11-.37,5.19,5.19,0,0,1-1.68-1,4.66,4.66,0,0,1-1.11-1.59,5.3,5.3,0,0,1,0-4,4.72,4.72,0,0,1,1.11-1.58,5.25,5.25,0,0,1,1.67-1,6,6,0,0,1,2.11-.37,5.72,5.72,0,0,1,2.1.37,4.82,4.82,0,0,1,3.18,4.63,5.09,5.09,0,0,1-.39,2A4.84,4.84,0,0,1,198.64,71,5.67,5.67,0,0,1,196.55,71.37Zm0-1.89a3.08,3.08,0,0,0,1.19-.23,3,3,0,0,0,1-.65,2.92,2.92,0,0,0,.64-1,3.51,3.51,0,0,0,0-2.5,2.92,2.92,0,0,0-.64-1,3,3,0,0,0-1-.65,3.08,3.08,0,0,0-1.19-.23,3.17,3.17,0,0,0-1.2.23,2.77,2.77,0,0,0-1,.65,3.26,3.26,0,0,0-.64,1,3.66,3.66,0,0,0,0,2.5,3.26,3.26,0,0,0,.64,1,2.77,2.77,0,0,0,1,.65A3.17,3.17,0,0,0,196.54,69.48Z"/><path d="M204.88,71.2V61.54h2.25v7.84h4.81V71.2Z"/><path d="M218.76,71.37a4,4,0,0,1-4.38-4.43v-5.4h2.25v5.34a2.86,2.86,0,0,0,.57,2,2,2,0,0,0,1.57.62,2.06,2.06,0,0,0,1.59-.62,2.91,2.91,0,0,0,.56-2V61.54h2.2v5.4A4.42,4.42,0,0,1,222,70.22,4.34,4.34,0,0,1,218.76,71.37Z"/><path d="M228.55,71.2V63.36h-3.09V61.54h8.41v1.82h-3.09V71.2Z"/><path d="M236.45,71.2V61.54h2.25V71.2Z"/><path d="M247,71.37a6,6,0,0,1-2.11-.37,5.19,5.19,0,0,1-1.68-1,4.66,4.66,0,0,1-1.11-1.59,5.3,5.3,0,0,1,0-4,4.72,4.72,0,0,1,1.11-1.58,5.19,5.19,0,0,1,1.68-1,5.94,5.94,0,0,1,2.1-.37,5.68,5.68,0,0,1,2.1.37,5,5,0,0,1,1.68,1,4.66,4.66,0,0,1,1.11,1.59,5,5,0,0,1,.39,2,5.09,5.09,0,0,1-.39,2A4.66,4.66,0,0,1,250.81,70a5,5,0,0,1-1.68,1A5.63,5.63,0,0,1,247,71.37Zm0-1.89a3.08,3.08,0,0,0,1.19-.23,2.77,2.77,0,0,0,1-.65,2.92,2.92,0,0,0,.64-1,3.51,3.51,0,0,0,0-2.5,2.92,2.92,0,0,0-.64-1,2.77,2.77,0,0,0-1-.65,3.08,3.08,0,0,0-1.19-.23,3.17,3.17,0,0,0-1.2.23,2.77,2.77,0,0,0-1,.65,3.05,3.05,0,0,0-.63,1,3.51,3.51,0,0,0,0,2.5,3.05,3.05,0,0,0,.63,1,2.77,2.77,0,0,0,1,.65A3.17,3.17,0,0,0,247,69.48Z"/><path d="M255.38,71.2V61.54h1.84l5.7,7H262v-7h2.21V71.2h-1.85l-5.69-7h.89v7Z"/><path d="M271.08,71.37a7.78,7.78,0,0,1-2.22-.31,5.2,5.2,0,0,1-1.72-.81l.76-1.68a5.38,5.38,0,0,0,1.46.72,5.43,5.43,0,0,0,1.72.28,3.46,3.46,0,0,0,1.07-.13,1.44,1.44,0,0,0,.6-.37.79.79,0,0,0,.2-.53.73.73,0,0,0-.31-.62,2.59,2.59,0,0,0-.8-.37c-.34-.1-.71-.19-1.1-.28s-.79-.19-1.19-.31a5.08,5.08,0,0,1-1.11-.5,2.41,2.41,0,0,1-.8-.82,2.5,2.5,0,0,1-.29-1.26,2.67,2.67,0,0,1,.44-1.51,3,3,0,0,1,1.34-1.09,5.58,5.58,0,0,1,2.27-.41,7.27,7.27,0,0,1,1.8.22,5.31,5.31,0,0,1,1.55.64l-.7,1.68a5.77,5.77,0,0,0-1.34-.56,5.23,5.23,0,0,0-1.32-.18,3.09,3.09,0,0,0-1.06.14,1.27,1.27,0,0,0-.59.39,1,1,0,0,0-.19.56.74.74,0,0,0,.31.62,2,2,0,0,0,.8.36l1.1.27a10.65,10.65,0,0,1,1.2.32,5.16,5.16,0,0,1,1.09.49,2.48,2.48,0,0,1,.81.8,2.44,2.44,0,0,1,.31,1.25,2.61,2.61,0,0,1-.45,1.49A3.08,3.08,0,0,1,273.36,71,5.46,5.46,0,0,1,271.08,71.37Z"/></svg>