<?xml version="1.0" encoding="utf-8"?>
<!-- Generator: Adobe Illustrator 26.0.1, SVG Export Plug-In . SVG Version: 6.00 Build 0)  -->
<svg version="1.1" id="Layer_1" xmlns="http://www.w3.org/2000/svg" xmlns:xlink="http://www.w3.org/1999/xlink" x="0px" y="0px"
	 viewBox="0 0 280 98.4" style="enable-background:new 0 0 280 98.4;" xml:space="preserve">
<style type="text/css">
	.st0{fill-rule:evenodd;clip-rule:evenodd;fill:#0058EE;}
	.st1{fill-rule:evenodd;clip-rule:evenodd;fill:#016CF0;}
	.st2{fill-rule:evenodd;clip-rule:evenodd;fill:#01ACFE;}
	.st3{fill-rule:evenodd;clip-rule:evenodd;fill:#00A1FE;}
	.st4{fill-rule:evenodd;clip-rule:evenodd;fill:#1491FE;}
	.st5{fill-rule:evenodd;clip-rule:evenodd;fill:#00D7FE;}
	.st6{fill-rule:evenodd;clip-rule:evenodd;fill:#00E9FF;}
	.st7{fill-rule:evenodd;clip-rule:evenodd;fill:#01BBFF;}
	.st8{fill-rule:evenodd;clip-rule:evenodd;fill:#AAEDF5;}
	.st9{fill-rule:evenodd;clip-rule:evenodd;fill:#295294;}
	.st10{fill-rule:evenodd;clip-rule:evenodd;fill:url(#SVGID_1_);}
	.st11{fill-rule:evenodd;clip-rule:evenodd;fill:#248FC7;}
	.st12{fill-rule:evenodd;clip-rule:evenodd;fill:url(#SVGID_00000095333043291995104370000013983524377943380131_);}
	.st13{fill-rule:evenodd;clip-rule:evenodd;fill:#14B3DD;}
	.st14{fill-rule:evenodd;clip-rule:evenodd;fill:url(#SVGID_00000182495829737141526940000011049963694911803568_);}
	.st15{fill-rule:evenodd;clip-rule:evenodd;fill:#16C6ED;}
	.st16{fill-rule:evenodd;clip-rule:evenodd;fill:#1F598B;}
	.st17{fill-rule:evenodd;clip-rule:evenodd;fill:#D8D8D8;}
	.st18{fill-rule:evenodd;clip-rule:evenodd;fill:#255B97;}
	.st19{fill-rule:evenodd;clip-rule:evenodd;fill:url(#SVGID_00000035523167659500960300000014918741855743183527_);}
	.st20{fill-rule:evenodd;clip-rule:evenodd;fill:#224177;}
	.st21{fill-rule:evenodd;clip-rule:evenodd;fill:#1D75A5;}
	.st22{fill-rule:evenodd;clip-rule:evenodd;fill:#214579;}
	.st23{fill-rule:evenodd;clip-rule:evenodd;fill:#2A5395;}
	.st24{fill-rule:evenodd;clip-rule:evenodd;fill:#306EBB;}
	.st25{fill-rule:evenodd;clip-rule:evenodd;fill:url(#SVGID_00000134955819675379098530000008062800169261428922_);}
	.st26{fill-rule:evenodd;clip-rule:evenodd;fill:#1DA6DC;}
	.st27{fill-rule:evenodd;clip-rule:evenodd;fill:#0700EE;}
	.st28{fill-rule:evenodd;clip-rule:evenodd;fill:#010CF0;}
	.st29{fill-rule:evenodd;clip-rule:evenodd;fill:#0146FE;}
	.st30{fill-rule:evenodd;clip-rule:evenodd;fill:#003CFE;}
	.st31{fill-rule:evenodd;clip-rule:evenodd;fill:#1433FE;}
	.st32{fill-rule:evenodd;clip-rule:evenodd;fill:#0071FE;}
	.st33{fill-rule:evenodd;clip-rule:evenodd;fill:#0082FF;}
	.st34{fill-rule:evenodd;clip-rule:evenodd;fill:#0155FF;}
	.st35{fill-rule:evenodd;clip-rule:evenodd;fill:#AACFF5;}
	.st36{fill:#3459E6;}
</style>
<g>
	<g>
		<g>
			<path class="st0" d="M52,41.8v42.8L37.9,55.2L52,41.8z"/>
			<path class="st1" d="M52,41.8H31.5l6.5,13.4L52,41.8z"/>
			<path class="st2" d="M31.5,41.8l6.5,13.4L32,60.5L26.6,54L31.5,41.8z"/>
			<path class="st3" d="M37.9,55.2L52,84.6L32,60.5L37.9,55.2z"/>
			<path class="st4" d="M52,41.8H31.5l5.9-15.3H52V41.8z"/>
			<path class="st5" d="M31.5,41.8L18.4,16.3l19,10.2L31.5,41.8z"/>
			<path class="st6" d="M31.5,41.8l-8.3-4.4l-4.8-21.1L31.5,41.8z"/>
			<path class="st5" d="M23.2,37.4L4.8,27.9l13.6-11.5L23.2,37.4z"/>
			<path class="st7" d="M31.5,41.8c0,0-4.9,12.2-4.9,12.2l-3.4-16.6C23.2,37.4,31.5,41.8,31.5,41.8z"/>
			<path class="st2" d="M23.2,37.4L4.8,27.9L26.6,54L23.2,37.4z"/>
			<path class="st8" d="M18.4,16.3L4.8,27.9l6.5-9.7l10.4-7.3L18.4,16.3z"/>
		</g>
		<path class="st9" d="M20.6,15.6l12.1,6.3v-7.6l-9.3-3.4L20.6,15.6z"/>
		<linearGradient id="SVGID_1_" gradientUnits="userSpaceOnUse" x1="30.9112" y1="13.6469" x2="34.8718" y2="2.7651">
			<stop  offset="1.892810e-02" style="stop-color:#2E66B3"/>
			<stop  offset="0.9205" style="stop-color:#28C4FF"/>
		</linearGradient>
		<path class="st10" d="M41.3,5.1L41.2,9l-6.3,1.9l-2.2,3.4l-9.3-3.4L41.3,5.1z"/>
		<path class="st11" d="M41.3,5.1l3.9,2.7L41.2,9L41.3,5.1z"/>
		
			<linearGradient id="SVGID_00000129911070703352407010000011578590798290073736_" gradientUnits="userSpaceOnUse" x1="41.3377" y1="6.4768" x2="64.2591" y2="6.4768">
			<stop  offset="0.2596" style="stop-color:#1C98CB"/>
			<stop  offset="0.8246" style="stop-color:#1ACDF8"/>
		</linearGradient>
		<path style="fill-rule:evenodd;clip-rule:evenodd;fill:url(#SVGID_00000129911070703352407010000011578590798290073736_);" d="
			M41.3,5.1h22.9L61,7.8H45.2L41.3,5.1z"/>
		<path class="st13" d="M64.3,5.1L65.1,9L61,7.8L64.3,5.1z"/>
		
			<linearGradient id="SVGID_00000045588136574089547600000016703182565710219945_" gradientUnits="userSpaceOnUse" x1="69.7215" y1="26.2308" x2="74.6336" y2="7.8983">
			<stop  offset="0.2349" style="stop-color:#2E66B3"/>
			<stop  offset="0.8679" style="stop-color:#1AE1FF"/>
		</linearGradient>
		<path style="fill-rule:evenodd;clip-rule:evenodd;fill:url(#SVGID_00000045588136574089547600000016703182565710219945_);" d="
			M64.3,5.1l4.1,1.2l15.4,9.3l-17.4,9.7l0.3-4.6l8-4.1l-3.2-5.4L65.1,9L64.3,5.1z"/>
		<path class="st15" d="M68.3,6.3l12.1,3.9l3.2,5.4L68.3,6.3z"/>
		<path class="st16" d="M66.6,20.7l-0.3,4.6l-3.4-2.5L66.6,20.7z"/>
		<path class="st17" d="M52.6,90.5c14.4,0,26.1,0.6,26.1,1.4S67,93.2,52.6,93.2s-26.1-0.6-26.1-1.4S38.2,90.5,52.6,90.5z"/>
		<path class="st18" d="M66.3,25.3l-3.4-2.5h-5.1l7.5,2.5H66.3z"/>
		
			<linearGradient id="SVGID_00000027567568286344142630000000998044063998863521_" gradientUnits="userSpaceOnUse" x1="39.9794" y1="15.2209" x2="60.0144" y2="15.2209">
			<stop  offset="0" style="stop-color:#2184BD"/>
			<stop  offset="0.6384" style="stop-color:#2469A4"/>
		</linearGradient>
		<path style="fill-rule:evenodd;clip-rule:evenodd;fill:url(#SVGID_00000027567568286344142630000000998044063998863521_);" d="
			M47.3,10.2l12.7,10h-9.8L40,16.8l0.7-4.6L47.3,10.2z"/>
		<path class="st20" d="M65.3,25.3H38.6l-0.3-4.8l4.3,2.3h15.1L65.3,25.3z"/>
		<path class="st21" d="M60,20.2L66,17l-0.5-4.8l-6.1-2l-5.5,5.2L60,20.2z"/>
		<path class="st22" d="M40,16.8c0,0,0.1,0,0.2,0.1c1.4,0.5,10.3,3.3,10.3,3.3h-5.1"/>
		<path class="st23" d="M36.5,24l2.2,1.3v-4.7l-2.2-1.3V24z"/>
		<path class="st24" d="M37.8,15.6l1.5-2.9l1.4-0.5L40,16.8L37.8,15.6z"/>
		
			<linearGradient id="SVGID_00000105389472637754226190000016027359045783074971_" gradientUnits="userSpaceOnUse" x1="49.9075" y1="13.3431" x2="56.9816" y2="7.4071">
			<stop  offset="0.3918" style="stop-color:#1D81B5"/>
			<stop  offset="0.7949" style="stop-color:#1C9ED0"/>
		</linearGradient>
		<path style="fill-rule:evenodd;clip-rule:evenodd;fill:url(#SVGID_00000105389472637754226190000016027359045783074971_);" d="
			M47.3,10.2l6.6,5.2l5.5-5.2H47.3z"/>
		<path class="st26" d="M65.4,12.2L66,17l2.7-1.7l-1.5-2.5L65.4,12.2z"/>
		<path class="st27" d="M66.1,55.2L52,84.6V41.8L66.1,55.2z"/>
		<path class="st28" d="M66.1,55.2l6.5-13.4H52L66.1,55.2z"/>
		<path class="st29" d="M77.5,54l-5.4,6.5l-5.9-5.3l6.5-13.4L77.5,54z"/>
		<path class="st30" d="M72.1,60.5L52,84.6l14.1-29.4L72.1,60.5z"/>
		<path class="st31" d="M52,26.5h14.6l5.9,15.3H52V26.5z"/>
		<path class="st32" d="M66.6,26.5l19-10.2L72.6,41.8L66.6,26.5z"/>
		<path class="st33" d="M85.7,16.3l-4.8,21.1l-8.3,4.4L85.7,16.3z"/>
		<path class="st32" d="M85.7,16.3l13.6,11.5l-18.3,9.5L85.7,16.3z"/>
		<path class="st34" d="M80.9,37.4L77.5,54c0,0-4.9-12.2-4.9-12.2C72.6,41.8,80.9,37.4,80.9,37.4z"/>
		<path class="st29" d="M77.5,54l21.7-26.1l-18.3,9.5L77.5,54z"/>
		<path class="st35" d="M82.4,10.9l10.4,7.3l6.5,9.7L85.7,16.3L82.4,10.9z"/>
	</g>
	<g>
		<g>
			<path class="st36" d="M111.2,52.8V32.3h9.2c2.7,0,4.6,0.7,5.8,2.2c0.9,1.1,1.3,2.4,1.3,4.1c0,1.7-0.4,3-1.3,4.1
				c-1.2,1.5-3.2,2.2-5.8,2.2h-5.6v7.9H111.2z M114.9,35.2V42h5.4c1,0,1.8-0.2,2.5-0.7c0.8-0.6,1.2-1.5,1.2-2.7
				c0-2.3-1.2-3.4-3.6-3.4H114.9z"/>
			<path class="st36" d="M132,52.8V32.3h10c2.3,0,4,0.5,5.2,1.4c1.2,1,1.8,2.3,1.8,4.1c0,2.7-1.2,4.4-3.5,5.2V43
				c2.1,0.3,3.1,1.7,3.1,4.3c0,2.8,0.4,4.6,1.1,5.4h-3.9c-0.4-0.6-0.6-1.6-0.6-3c0-2-0.3-3.3-0.8-4.1c-0.6-0.9-1.7-1.3-3.3-1.3h-5.4
				v8.4H132z M135.7,35.2v6.4h6c2.4,0,3.6-1.1,3.6-3.3c0-2.1-1.2-3.1-3.6-3.1H135.7z"/>
			<path class="st36" d="M153.8,52.8V32.3h15.1v3.1h-11.4v5.4h10.6v2.9h-10.6v6h11.6v3.1H153.8z"/>
			<path class="st36" d="M191.3,38.8h-3.7c-0.7-2.7-2.4-4.1-5.2-4.1c-2.1,0-3.7,0.8-4.9,2.4c-1,1.4-1.5,3.2-1.5,5.4
				c0,2.2,0.5,3.9,1.5,5.4c1.2,1.6,2.8,2.4,4.9,2.4c1.6,0,2.8-0.5,3.8-1.6c0.9-1,1.4-2.2,1.6-3.8h3.6c-0.2,2.5-1.1,4.5-2.7,6
				c-1.6,1.5-3.7,2.3-6.2,2.3c-3.1,0-5.5-1.1-7.4-3.2c-1.8-2-2.7-4.5-2.7-7.5c0-3,0.9-5.6,2.7-7.6c1.9-2.1,4.3-3.2,7.4-3.2
				c2.4,0,4.4,0.6,6,1.8C190.2,34.9,191.1,36.6,191.3,38.8z"/>
			<path class="st36" d="M195.9,52.8V32.3h3.7v20.5H195.9z"/>
			<path class="st36" d="M204,45.9h3.7c0,1.5,0.5,2.6,1.6,3.4c0.9,0.7,2.2,1,3.8,1c1.5,0,2.7-0.3,3.4-1c0.7-0.6,1-1.3,1-2.1
				c0-1.3-0.6-2.1-1.7-2.5c-0.2-0.1-2.2-0.6-6.3-1.7c-3.1-0.8-4.6-2.5-4.6-5.2c0-1.9,0.8-3.4,2.4-4.6c1.4-1,3.2-1.5,5.3-1.5
				c2.3,0,4.2,0.6,5.7,1.7c1.6,1.2,2.4,2.8,2.4,4.9h-3.7c-0.2-2.4-1.7-3.6-4.5-3.6c-1,0-1.9,0.2-2.6,0.5c-0.9,0.5-1.3,1.2-1.3,2.1
				c0,1.3,0.8,2.2,2.5,2.6c1.7,0.4,3.7,1,6,1.6c1.3,0.4,2.3,1.1,3.1,2.1c0.7,0.9,1,2,1,3.1c0,2.1-0.9,3.8-2.6,4.9
				c-1.5,1-3.4,1.5-5.7,1.5c-2.5,0-4.6-0.6-6.1-1.7C204.9,50.2,204,48.4,204,45.9z"/>
			<path class="st36" d="M225.4,52.8V32.3h3.7v20.5H225.4z"/>
			<path class="st36" d="M243.7,31.8c3.1,0,5.5,1.1,7.4,3.2c1.8,2,2.7,4.5,2.7,7.6c0,3-0.9,5.5-2.7,7.5c-1.9,2.1-4.3,3.2-7.4,3.2
				s-5.5-1.1-7.4-3.2c-1.8-2-2.7-4.5-2.7-7.5c0-3,0.9-5.5,2.7-7.6C238.2,32.9,240.6,31.8,243.7,31.8z M243.7,34.7
				c-2.1,0-3.7,0.8-4.9,2.4c-1,1.4-1.5,3.2-1.5,5.4c0,2.2,0.5,3.9,1.5,5.4c1.2,1.6,2.8,2.4,4.9,2.4c2.1,0,3.7-0.8,4.9-2.4
				c1-1.4,1.5-3.2,1.5-5.4c0-2.2-0.5-3.9-1.5-5.4C247.4,35.5,245.8,34.7,243.7,34.7z"/>
			<path class="st36" d="M258.1,52.8V32.3h3.9l9.6,15.1V32.3h3.5v20.5h-3.9l-9.5-15h-0.1v15H258.1z"/>
		</g>
		<g>
			<path d="M114.3,66.4v-7.8h-3.1v-1.8h8.4v1.8h-3.1v7.8H114.3z"/>
			<path d="M120.4,66.4l4.3-9.7h2.2l4.3,9.7h-2.3l-3.5-8.5h0.9l-3.5,8.5H120.4z M122.6,64.3l0.6-1.7h5l0.6,1.7H122.6z"/>
			<path d="M133.6,66.4v-9.7h2.2v7.8h4.8v1.8H133.6z"/>
			<path d="M145.6,64.6h5.3v1.8h-7.5v-9.7h7.3v1.8h-5.1V64.6z M145.4,60.6h4.6v1.8h-4.6V60.6z"/>
			<path d="M154,66.4v-9.7h1.8l5.7,7h-0.9v-7h2.2v9.7H161l-5.7-7h0.9v7H154z"/>
			<path d="M168.5,66.4v-7.8h-3.1v-1.8h8.4v1.8h-3.1v7.8H168.5z"/>
			<path d="M184.9,66.5c-0.8,0-1.5-0.1-2.2-0.3c-0.7-0.2-1.3-0.5-1.7-0.8l0.8-1.7c0.4,0.3,0.9,0.5,1.5,0.7c0.6,0.2,1.1,0.3,1.7,0.3
				c0.4,0,0.8,0,1.1-0.1c0.3-0.1,0.5-0.2,0.6-0.4c0.1-0.2,0.2-0.3,0.2-0.5c0-0.3-0.1-0.5-0.3-0.6c-0.2-0.2-0.5-0.3-0.8-0.4
				c-0.3-0.1-0.7-0.2-1.1-0.3c-0.4-0.1-0.8-0.2-1.2-0.3c-0.4-0.1-0.8-0.3-1.1-0.5c-0.3-0.2-0.6-0.5-0.8-0.8
				c-0.2-0.3-0.3-0.8-0.3-1.3c0-0.6,0.1-1.1,0.4-1.5c0.3-0.5,0.7-0.8,1.3-1.1c0.6-0.3,1.4-0.4,2.3-0.4c0.6,0,1.2,0.1,1.8,0.2
				c0.6,0.1,1.1,0.4,1.6,0.6l-0.7,1.7c-0.4-0.2-0.9-0.4-1.3-0.6c-0.5-0.1-0.9-0.2-1.3-0.2c-0.4,0-0.8,0-1.1,0.1
				c-0.3,0.1-0.5,0.2-0.6,0.4c-0.1,0.2-0.2,0.4-0.2,0.6c0,0.3,0.1,0.5,0.3,0.6c0.2,0.2,0.5,0.3,0.8,0.4c0.3,0.1,0.7,0.2,1.1,0.3
				c0.4,0.1,0.8,0.2,1.2,0.3c0.4,0.1,0.8,0.3,1.1,0.5c0.3,0.2,0.6,0.5,0.8,0.8c0.2,0.3,0.3,0.8,0.3,1.2c0,0.5-0.1,1-0.4,1.5
				c-0.3,0.5-0.8,0.8-1.4,1.1S185.8,66.5,184.9,66.5z"/>
			<path d="M196.6,66.5c-0.8,0-1.5-0.1-2.1-0.4c-0.6-0.2-1.2-0.6-1.7-1c-0.5-0.5-0.8-1-1.1-1.6c-0.3-0.6-0.4-1.3-0.4-2
				c0-0.7,0.1-1.4,0.4-2c0.3-0.6,0.6-1.1,1.1-1.6c0.5-0.5,1-0.8,1.7-1c0.6-0.2,1.3-0.4,2.1-0.4c0.8,0,1.5,0.1,2.1,0.4
				c0.6,0.2,1.2,0.6,1.7,1c0.5,0.5,0.8,1,1.1,1.6c0.3,0.6,0.4,1.3,0.4,2c0,0.7-0.1,1.4-0.4,2c-0.3,0.6-0.6,1.1-1.1,1.6
				c-0.5,0.5-1,0.8-1.7,1C198,66.4,197.3,66.5,196.6,66.5z M196.5,64.7c0.4,0,0.8-0.1,1.2-0.2c0.4-0.2,0.7-0.4,1-0.6
				c0.3-0.3,0.5-0.6,0.6-1c0.2-0.4,0.2-0.8,0.2-1.2c0-0.5-0.1-0.9-0.2-1.2c-0.2-0.4-0.4-0.7-0.6-1c-0.3-0.3-0.6-0.5-1-0.6
				c-0.4-0.2-0.8-0.2-1.2-0.2c-0.4,0-0.8,0.1-1.2,0.2c-0.4,0.2-0.7,0.4-1,0.6c-0.3,0.3-0.5,0.6-0.6,1c-0.2,0.4-0.2,0.8-0.2,1.2
				c0,0.5,0.1,0.9,0.2,1.2c0.2,0.4,0.4,0.7,0.6,1c0.3,0.3,0.6,0.5,1,0.6C195.7,64.6,196.1,64.7,196.5,64.7z"/>
			<path d="M204.9,66.4v-9.7h2.2v7.8h4.8v1.8H204.9z"/>
			<path d="M218.8,66.5c-1.4,0-2.4-0.4-3.2-1.1c-0.8-0.8-1.2-1.9-1.2-3.3v-5.4h2.2v5.3c0,0.9,0.2,1.6,0.6,2c0.4,0.4,0.9,0.6,1.6,0.6
				c0.7,0,1.2-0.2,1.6-0.6c0.4-0.4,0.6-1.1,0.6-2v-5.3h2.2v5.4c0,1.4-0.4,2.5-1.2,3.3C221.2,66.2,220.1,66.5,218.8,66.5z"/>
			<path d="M228.5,66.4v-7.8h-3.1v-1.8h8.4v1.8h-3.1v7.8H228.5z"/>
			<path d="M236.5,66.4v-9.7h2.2v9.7H236.5z"/>
			<path d="M247,66.5c-0.8,0-1.5-0.1-2.1-0.4c-0.6-0.2-1.2-0.6-1.7-1c-0.5-0.5-0.8-1-1.1-1.6c-0.3-0.6-0.4-1.3-0.4-2
				c0-0.7,0.1-1.4,0.4-2c0.3-0.6,0.6-1.1,1.1-1.6c0.5-0.5,1-0.8,1.7-1c0.6-0.2,1.3-0.4,2.1-0.4c0.8,0,1.5,0.1,2.1,0.4
				c0.6,0.2,1.2,0.6,1.7,1c0.5,0.5,0.8,1,1.1,1.6c0.3,0.6,0.4,1.3,0.4,2c0,0.7-0.1,1.4-0.4,2c-0.3,0.6-0.6,1.1-1.1,1.6
				c-0.5,0.5-1,0.8-1.7,1C248.5,66.4,247.8,66.5,247,66.5z M247,64.7c0.4,0,0.8-0.1,1.2-0.2c0.4-0.2,0.7-0.4,1-0.6
				c0.3-0.3,0.5-0.6,0.6-1c0.2-0.4,0.2-0.8,0.2-1.2c0-0.5-0.1-0.9-0.2-1.2c-0.2-0.4-0.4-0.7-0.6-1c-0.3-0.3-0.6-0.5-1-0.6
				c-0.4-0.2-0.8-0.2-1.2-0.2c-0.4,0-0.8,0.1-1.2,0.2c-0.4,0.2-0.7,0.4-1,0.6c-0.3,0.3-0.5,0.6-0.6,1c-0.2,0.4-0.2,0.8-0.2,1.2
				c0,0.5,0.1,0.9,0.2,1.2c0.2,0.4,0.4,0.7,0.6,1c0.3,0.3,0.6,0.5,1,0.6C246.2,64.6,246.6,64.7,247,64.7z"/>
			<path d="M255.4,66.4v-9.7h1.8l5.7,7H262v-7h2.2v9.7h-1.8l-5.7-7h0.9v7H255.4z"/>
			<path d="M271.1,66.5c-0.8,0-1.5-0.1-2.2-0.3c-0.7-0.2-1.3-0.5-1.7-0.8l0.8-1.7c0.4,0.3,0.9,0.5,1.5,0.7c0.6,0.2,1.1,0.3,1.7,0.3
				c0.4,0,0.8,0,1.1-0.1c0.3-0.1,0.5-0.2,0.6-0.4c0.1-0.2,0.2-0.3,0.2-0.5c0-0.3-0.1-0.5-0.3-0.6c-0.2-0.2-0.5-0.3-0.8-0.4
				c-0.3-0.1-0.7-0.2-1.1-0.3c-0.4-0.1-0.8-0.2-1.2-0.3c-0.4-0.1-0.8-0.3-1.1-0.5c-0.3-0.2-0.6-0.5-0.8-0.8
				c-0.2-0.3-0.3-0.8-0.3-1.3c0-0.6,0.1-1.1,0.4-1.5c0.3-0.5,0.7-0.8,1.3-1.1c0.6-0.3,1.4-0.4,2.3-0.4c0.6,0,1.2,0.1,1.8,0.2
				c0.6,0.1,1.1,0.4,1.6,0.6l-0.7,1.7c-0.4-0.2-0.9-0.4-1.3-0.6c-0.5-0.1-0.9-0.2-1.3-0.2c-0.4,0-0.8,0-1.1,0.1
				c-0.3,0.1-0.5,0.2-0.6,0.4c-0.1,0.2-0.2,0.4-0.2,0.6c0,0.3,0.1,0.5,0.3,0.6c0.2,0.2,0.5,0.3,0.8,0.4c0.3,0.1,0.7,0.2,1.1,0.3
				c0.4,0.1,0.8,0.2,1.2,0.3c0.4,0.1,0.8,0.3,1.1,0.5c0.3,0.2,0.6,0.5,0.8,0.8c0.2,0.3,0.3,0.8,0.3,1.2c0,0.5-0.1,1-0.4,1.5
				c-0.3,0.5-0.8,0.8-1.4,1.1C272.8,66.4,272,66.5,271.1,66.5z"/>
		</g>
	</g>
</g>
</svg>
