<?xml version="1.0" encoding="UTF-8"?>
<svg width="700pt" height="700pt" version="1.1" viewBox="0 0 700 700" xmlns="http://www.w3.org/2000/svg">
 <g>
  <path d="m625.94 450.12c-2.1914-56.352-44.332-102.69-100.24-110.2l-26.016-3.4766c-13.184-1.7734-23.684-11.691-26.391-24.641 30.707-17.965 51.59-50.938 51.59-89.016l-0.003907-32.551c0.023438-0.35156 0.023438-0.69922 0-1.0508v-32.551c0-57.051-46.41-103.48-103.48-103.48-57.074 0-103.48 46.41-103.48 103.48v66.148c0 38.059 20.883 71.027 51.566 89.016-2.707 12.996-13.207 22.867-26.367 24.641l-26.062 3.4766c-5.7852 0.76953-11.34 2.2148-16.824 3.8047-0.16016-0.34766-0.27734-0.72266-0.46484-1.0508l9.1484-9.1719c1.75-1.75 2.7305-4.1523 2.7305-6.6016 0-2.4727-0.98047-4.8516-2.7539-6.6016l-23.637-23.566c-3.6641-3.6406-9.4961-3.6172-13.137-0.046875l-9.2852 9.1719c-6.5586-3.7109-13.488-6.6016-20.695-8.6797v-13.043c0-5.1562-4.1758-9.332-9.332-9.332l-33.465-0.003906c-5.1562 0-9.332 4.1758-9.332 9.332v13.02c-7.2812 2.0547-14.281 4.9453-20.883 8.6562l-9.0547-9.0742c-3.6172-3.6406-9.4961-3.6172-13.16-0.046875l-23.848 23.566c-1.7969 1.7734-2.7773 4.1758-2.7773 6.6484 0 2.4961 1.0039 4.8984 2.7773 6.6484l9.2383 9.1016c-3.6641 6.5781-6.5352 13.535-8.6094 20.789l-13.039 0.003906c-5.1562 0-9.332 4.1992-9.332 9.332v33.484c0 5.1562 4.1758 9.332 9.332 9.332h13.02c2.0781 7.2344 4.9453 14.164 8.6328 20.766l-9.2383 9.125c-1.7734 1.75-2.7773 4.1289-2.7773 6.625 0 2.4727 0.98047 4.875 2.7305 6.625l23.871 23.848c1.75 1.7266 4.1289 2.7305 6.6016 2.7305h0.046875c2.4727-0.023438 4.8516-1.0273 6.6016-2.8008l9.0781-9.2148c6.6016 3.6875 13.559 6.5781 20.812 8.6094v12.766c0 5.1562 4.1758 9.332 9.332 9.332h16.707c4.3867 27.02 27.695 47.762 55.953 47.762l150.12-0.023438c0.070313 0 0.11719 0.023438 0.16406 0.023438s0.11719-0.023438 0.16406-0.023438l150.59-0.023437c15.168-0.58203 29.215-7.0703 39.504-18.199 10.312-11.176 15.656-25.668 15.074-40.832zm-122.59-94.363-30.125 58.078-22.844-25.922 36.215-36.168c3.4531 1.2852 6.8594 2.6836 10.617 3.1719zm-81.926-283.94c46.762 0 84.793 38.035 84.793 84.816v10.477l-19.625-19.555c-6.8828-6.8828-18.898-6.8359-25.762 0-21.723 21.723-57.098 21.723-78.82 0.023437-6.8828-6.8828-18.875-6.9297-25.785 0l-19.602 19.625 0.007812-10.57c-0.023437-46.785 38.035-84.816 84.793-84.816zm-84.816 150.96v-29.258l32.176-32.785c29.027 29.004 76.207 29.004 104.62 0l32.785 32.691v29.309c0 46.762-38.035 84.816-84.793 84.816-46.758 0-84.793-38.012-84.793-84.773zm84.816 103.48c12.391 0 24.125-2.543 35.141-6.5586 2.6133 8.6094 6.9766 16.355 13.371 22.285l-47.672 47.648-48.488-48.559c5.9023-5.7852 9.9883-13.184 12.461-21.375 11.039 4.0156 22.777 6.5586 35.188 6.5586zm-75.809 28.676c4.2695-0.58203 8.1914-2.0312 12.039-3.6172l35.605 35.605-23.613 26.902-30.148-58.078zm-144.5 110.41c-10.102-1.9609-19.555-5.8789-28.164-11.668-3.7109-2.4961-8.7031-2.0078-11.852 1.2148l-7.6758 7.793-10.57-10.547 7.793-7.6758c3.1719-3.1484 3.6875-8.0977 1.2383-11.809-5.7148-8.6562-9.6836-18.176-11.738-28.305-0.91016-4.3633-4.7148-7.4648-9.1484-7.4648h-11.012v-14.793h11.012c4.4336 0 8.2617-3.125 9.1484-7.4648 2.1016-10.172 6.043-19.691 11.762-28.305 2.4492-3.7109 1.9375-8.6562-1.2383-11.809l-7.7695-7.6289 10.523-10.383 7.7227 7.7227c3.1484 3.1953 8.1445 3.6641 11.828 1.1211 8.5625-5.7617 18.035-9.707 28.164-11.691 4.3867-0.86328 7.5352-4.6914 7.5352-9.1719v-11.035h14.793v11.035c0 4.4336 3.125 8.2617 7.4883 9.1719 10.035 2.0078 19.438 5.9492 27.953 11.691 3.7109 2.543 8.6328 2.0781 11.785-1.0742l7.9102-7.8164 10.477 10.453-7.6758 7.6523c-3.125 3.125-3.6406 8.0039-1.2383 11.691 0.88672 1.3516 1.4688 2.8945 2.2617 4.293-5.3906 2.5898-10.477 5.625-15.352 8.9609-10.477-18.035-29.703-29.586-51.191-29.586h-0.11719c-32.785 0.070312-59.383 26.762-59.336 59.547 0.046875 32.715 26.691 59.336 59.406 59.336h0.09375c0.375 0 0.69922-0.11719 1.0742-0.14062 0 0.49219-0.14062 0.95703-0.16406 1.4492l-1.3281 35.207h-6.8359v-10.805c0-4.4531-3.1758-8.3281-7.5625-9.168zm18.34-35.629c-1.2148 0.09375-2.4492 0.16406-3.5938 0.39844-22.445 0-40.738-18.223-40.762-40.691-0.023438-22.492 17.547-41.625 40.785-40.809 15.797 0 29.469 9.2852 36.215 23.191-16.008 15.512-27.719 35.371-32.645 57.91zm14.398 63.676 1.6562-42.535c1.8438-47.25 37.191-86.125 84.07-92.422l0.28125-0.046875 39.504 76.16c1.4453 2.7305 4.1055 4.5742 7.1875 4.9688 0.375 0.046875 0.74609 0.070312 1.1211 0.070312 2.6602 0 5.2266-1.168 7.0234-3.1953l31.828-36.238 6.5117 6.5117v126.42l-141.01-0.003906c-21.07 0-38.195-17.129-38.172-39.691zm365.05 27.418c-6.9297 7.4883-16.355 11.828-28.07 12.25h-139.16v-126.46l5.4844-5.4844 31.078 35.281c1.7734 2.0312 4.3398 3.1719 7 3.1719 0.375 0 0.74609-0.023437 1.1445-0.070313 3.0586-0.39844 5.7148-2.2383 7.1641-4.9688l39.504-76.16 0.21094 0.023438c46.875 6.3008 82.203 45.172 84.07 92.422l1.7031 42.535c0.37109 10.219-3.1992 19.973-10.129 27.465z"/>
  <path d="m449.49 451.17c-4.875 0-8.8438 3.9648-8.8438 8.8438 0 4.875 3.9648 8.8438 8.8438 8.8438 4.875 0 8.8438-3.9648 8.8438-8.8438 0-4.875-3.9648-8.8438-8.8438-8.8438z"/>
  <path d="m449.49 484c-4.875 0-8.8438 3.9648-8.8438 8.8438 0 4.875 3.9648 8.8438 8.8438 8.8438 4.875 0 8.8438-3.9648 8.8438-8.8438s-3.9648-8.8438-8.8438-8.8438z"/>
  <path d="m191.59 189.07c33.949 0 61.555-27.625 61.555-61.555 0-33.926-27.605-61.551-61.555-61.551-33.949 0-61.555 27.602-61.555 61.551s27.605 61.555 61.555 61.555zm0-104.44c23.66 0 42.887 19.25 42.887 42.887 0 23.66-19.25 42.887-42.887 42.887-23.637 0-42.887-19.25-42.887-42.887s19.25-42.887 42.887-42.887z"/>
  <path d="m126.28 227.06h0.023438c2.4727 0 4.8516-1.0039 6.6016-2.7773l9.6836-9.8242c7.0234 3.9648 14.441 7.0469 22.191 9.1914v13.625c0 5.1562 4.1758 9.332 9.332 9.332h35c5.1562 0 9.332-4.1758 9.332-9.332v-13.672c7.7031-2.168 15.051-5.25 21.98-9.168l9.918 9.8945c1.75 1.75 4.1289 2.7305 6.6016 2.7305 2.2383-0.46484 4.875-1.0039 6.625-2.7773l24.664-24.898c3.6172-3.6406 3.5938-9.5195-0.023437-13.16l-9.75-9.7305c3.8945-7 6.9062-14.418 9.0273-22.141l14.07 0.046876c2.4492 0.11719 4.8516-0.98047 6.625-2.7305 1.75-1.75 2.7539-4.1289 2.7539-6.6016v-35c0-5.1562-4.1758-9.332-9.332-9.332l-14.047-0.003906c-2.1016-7.7695-5.1328-15.191-9.0547-22.215l9.6875-9.6836c3.6406-3.6406 3.6406-9.543 0-13.184l-24.617-24.66c-3.6172-3.6406-9.4727-3.6406-13.16-0.046875l-9.8945 9.75c-6.9531-3.9648-14.328-7.043-22.004-9.2148v-13.906c0-5.1562-4.1758-9.332-9.332-9.332h-35c-5.1562 0-9.332 4.1758-9.332 9.332v13.859c-7.793 2.1484-15.215 5.25-22.238 9.2422l-9.6836-9.6836c-3.6406-3.6172-9.543-3.6406-13.16 0l-24.828 24.613c-1.7695 1.75-2.75 4.1562-2.75 6.6523s1.0039 4.875 2.7773 6.625l9.8477 9.707c-3.9219 6.9766-7.0039 14.375-9.2188 22.074h-13.93c-5.1562 0-9.332 4.1758-9.332 9.332v35c0 5.1562 4.1758 9.332 9.332 9.332h13.93c2.1914 7.7227 5.2969 15.121 9.2383 22.145l-9.9375 9.6836c-1.7734 1.75-2.8008 4.1289-2.8008 6.625-0.023437 2.5 0.98047 4.8789 2.7305 6.6523l24.852 24.898c1.7461 1.75 4.1289 2.7305 6.6016 2.7305zm-1.8438-54.297c-6.043-9.0547-10.199-19.043-12.391-29.66-0.88672-4.3398-4.7148-7.4414-9.1484-7.4414h-11.898v-16.332h11.898c4.4102 0 8.2383-3.1016 9.1484-7.4219 2.1914-10.594 6.3711-20.535 12.391-29.586 2.4727-3.7344 1.9609-8.6797-1.2148-11.828l-8.4219-8.2852 11.527-11.434 8.3281 8.3281c3.1953 3.1719 8.1211 3.6406 11.809 1.1211 8.9609-6.043 18.898-10.172 29.516-12.25 4.3867-0.86328 7.5352-4.6914 7.5352-9.1719v-11.898h16.332v11.898c0 4.4336 3.125 8.2617 7.4648 9.1484 10.523 2.125 20.395 6.2773 29.328 12.273 3.668 2.4492 8.5938 2.0312 11.766-1.0977l8.5156-8.375 11.48 11.48-8.3047 8.3047c-3.1523 3.1758-3.6172 8.0977-1.168 11.785 5.9961 8.9609 10.035 18.875 12.016 29.469 0.81641 4.4102 4.668 7.6328 9.1719 7.6328h12.156v16.285l-12.133-0.046875h-0.023437c-4.457 0-8.3086 3.1484-9.1719 7.5352-2.0742 10.594-6.1133 20.582-12.062 29.633-2.4023 3.6875-1.9141 8.5898 1.2148 11.715l8.3086 8.3281-11.508 11.621-8.4922-8.4922c-3.1484-3.1719-8.0977-3.6172-11.828-1.1211-8.9141 5.9727-18.762 10.105-29.309 12.25-4.3633 0.88672-7.4648 4.7148-7.4648 9.1484v11.668h-16.332v-11.668c0-4.457-3.1484-8.2852-7.5352-9.1719-10.621-2.0742-20.562-6.207-29.543-12.25-3.6875-2.4727-8.7031-2.0039-11.855 1.1914l-8.3047 8.4219-11.527-11.547 8.4922-8.3086c3.1992-3.125 3.7109-8.1211 1.2383-11.852z"/>
 </g>
</svg>
